<?xml version="1.0" encoding="UTF-8"?>
<svg xmlns="http://www.w3.org/2000/svg" xmlns:xlink="http://www.w3.org/1999/xlink"
     width="850" height="100" viewBox="0 0 850 100">
<defs>
</defs>
<text x="40.0" y="43.5" font-size="16" fill="white" style="font-family:Segoe UI;text-anchor:middle">Cerus</text>
<rect x="80" y="25" width="100" height="25" fill="purple" />
<text x="130.0" y="41.5" font-size="12" fill="white" style="font-family:Segoe UI;text-anchor:middle">Gluttony</text>
<rect x="240" y="25" width="50" height="25" fill="orange" />
<text x="265.0" y="41.5" font-size="12" fill="black" style="font-family:Segoe UI;text-anchor:middle">Rage</text>
<rect x="340" y="25" width="50" height="25" fill="black" />
<text x="365.0" y="41.5" font-size="12" fill="white" style="font-family:Segoe UI;text-anchor:middle">Malice</text>
<rect x="400" y="25" width="50" height="25" fill="red" />
<text x="425.0" y="41.5" font-size="12" fill="white" style="font-family:Segoe UI;text-anchor:middle">Despair</text>
<rect x="490" y="25" width="50" height="25" fill="green" />
<text x="515.0" y="41.5" font-size="12" fill="white" style="font-family:Segoe UI;text-anchor:middle">Regret</text>
<rect x="600" y="25" width="100" height="25" fill="blue" />
<text x="650.0" y="41.5" font-size="12" fill="white" style="font-family:Segoe UI;text-anchor:middle">Envy</text>
<rect x="750" y="25" width="100" height="25" fill="purple" />
<text x="800.0" y="41.5" font-size="12" fill="white" style="font-family:Segoe UI;text-anchor:middle">Gluttony</text>
<text x="40.0" y="68.5" font-size="16" fill="white" style="font-family:Segoe UI;text-anchor:middle">Aspects</text>
<rect x="190" y="50" width="50" height="25" fill="green" />
<text x="215.0" y="66.5" font-size="12" fill="white" style="font-family:Segoe UI;text-anchor:middle">Regret</text>
<rect x="340" y="50" width="50" height="25" fill="orange" />
<text x="365.0" y="66.5" font-size="12" fill="black" style="font-family:Segoe UI;text-anchor:middle">Rage</text>
<rect x="490" y="50" width="100" height="25" fill="purple" />
<text x="540.0" y="66.5" font-size="12" fill="white" style="font-family:Segoe UI;text-anchor:middle">Gluttony</text>
<rect x="640" y="50" width="50" height="25" fill="black" />
<text x="665.0" y="66.5" font-size="12" fill="white" style="font-family:Segoe UI;text-anchor:middle">Malice</text>
<rect x="790" y="50" width="50" height="25" fill="red" />
<text x="815.0" y="66.5" font-size="12" fill="white" style="font-family:Segoe UI;text-anchor:middle">Despair</text>
<text x="40.0" y="93.5" font-size="16" fill="white" style="font-family:Segoe UI;text-anchor:middle">Phasing</text>
<rect x="80" y="75" width="30" height="25" fill="yellow" />
<text x="95.0" y="91.5" font-size="12"></text>
<rect x="110" y="75" width="130" height="25" fill="green" />
<text x="175.0" y="91.5" font-size="12"></text>
<rect x="240" y="75" width="100" height="25" fill="yellow" />
<text x="290.0" y="91.5" font-size="12"></text>
<rect x="340" y="75" width="50" height="25" fill="red" />
<text x="365.0" y="91.5" font-size="12"></text>
<rect x="390" y="75" width="100" height="25" fill="orange" />
<text x="440.0" y="91.5" font-size="12"></text>
<rect x="490" y="75" width="110" height="25" fill="green" />
<text x="545.0" y="91.5" font-size="12"></text>
<rect x="600" y="75" width="90" height="25" fill="red" />
<text x="645.0" y="91.5" font-size="12"></text>
<rect x="690" y="75" width="50" height="25" fill="green" />
<text x="715.0" y="91.5" font-size="12"></text>
<rect x="740" y="75" width="110" height="25" fill="red" />
<text x="795.0" y="91.5" font-size="12"></text>
<path d="M0,25 L850,25" stroke="white" stroke-width="2" />
<path d="M0,75 L850,75" stroke="white" stroke-width="2" />
<path d="M80,0 L80,100" stroke="white" stroke-width="2" />
<path d="M90,20.0 L90,25" stroke="white" stroke-width="0.5" />
<path d="M100,22.5 L100,white" stroke="white" stroke-width="0.3" />
<path d="M110,22.5 L110,white" stroke="white" stroke-width="0.3" />
<path d="M120,22.5 L120,white" stroke="white" stroke-width="0.3" />
<path d="M130,22.5 L130,white" stroke="white" stroke-width="0.3" />
<path d="M140,15.0 L140,25" stroke="white" stroke-width="1.5" />
<text x="140.0" y="12.5" font-size="10" fill="white" style="font-family:Segoe UI;text-anchor:middle">170</text>
<path d="M150,22.5 L150,white" stroke="white" stroke-width="0.3" />
<path d="M160,22.5 L160,white" stroke="white" stroke-width="0.3" />
<path d="M170,22.5 L170,white" stroke="white" stroke-width="0.3" />
<path d="M180,22.5 L180,white" stroke="white" stroke-width="0.3" />
<path d="M190,20.0 L190,25" stroke="white" stroke-width="0.5" />
<path d="M200,22.5 L200,white" stroke="white" stroke-width="0.3" />
<path d="M210,22.5 L210,white" stroke="white" stroke-width="0.3" />
<path d="M220,22.5 L220,white" stroke="white" stroke-width="0.3" />
<path d="M230,22.5 L230,white" stroke="white" stroke-width="0.3" />
<path d="M240,15.0 L240,25" stroke="white" stroke-width="1.5" />
<text x="240.0" y="12.5" font-size="10" fill="white" style="font-family:Segoe UI;text-anchor:middle">180</text>
<path d="M250,22.5 L250,white" stroke="white" stroke-width="0.3" />
<path d="M260,22.5 L260,white" stroke="white" stroke-width="0.3" />
<path d="M270,22.5 L270,white" stroke="white" stroke-width="0.3" />
<path d="M280,22.5 L280,white" stroke="white" stroke-width="0.3" />
<path d="M290,20.0 L290,25" stroke="white" stroke-width="0.5" />
<path d="M300,22.5 L300,white" stroke="white" stroke-width="0.3" />
<path d="M310,22.5 L310,white" stroke="white" stroke-width="0.3" />
<path d="M320,22.5 L320,white" stroke="white" stroke-width="0.3" />
<path d="M330,22.5 L330,white" stroke="white" stroke-width="0.3" />
<path d="M340,15.0 L340,25" stroke="white" stroke-width="1.5" />
<text x="340.0" y="12.5" font-size="10" fill="white" style="font-family:Segoe UI;text-anchor:middle">190</text>
<path d="M350,22.5 L350,white" stroke="white" stroke-width="0.3" />
<path d="M360,22.5 L360,white" stroke="white" stroke-width="0.3" />
<path d="M370,22.5 L370,white" stroke="white" stroke-width="0.3" />
<path d="M380,22.5 L380,white" stroke="white" stroke-width="0.3" />
<path d="M390,20.0 L390,25" stroke="white" stroke-width="0.5" />
<path d="M400,22.5 L400,white" stroke="white" stroke-width="0.3" />
<path d="M410,22.5 L410,white" stroke="white" stroke-width="0.3" />
<path d="M420,22.5 L420,white" stroke="white" stroke-width="0.3" />
<path d="M430,22.5 L430,white" stroke="white" stroke-width="0.3" />
<path d="M440,15.0 L440,25" stroke="white" stroke-width="1.5" />
<text x="440.0" y="12.5" font-size="10" fill="white" style="font-family:Segoe UI;text-anchor:middle">200</text>
<path d="M450,22.5 L450,white" stroke="white" stroke-width="0.3" />
<path d="M460,22.5 L460,white" stroke="white" stroke-width="0.3" />
<path d="M470,22.5 L470,white" stroke="white" stroke-width="0.3" />
<path d="M480,22.5 L480,white" stroke="white" stroke-width="0.3" />
<path d="M490,20.0 L490,25" stroke="white" stroke-width="0.5" />
<path d="M500,22.5 L500,white" stroke="white" stroke-width="0.3" />
<path d="M510,22.5 L510,white" stroke="white" stroke-width="0.3" />
<path d="M520,22.5 L520,white" stroke="white" stroke-width="0.3" />
<path d="M530,22.5 L530,white" stroke="white" stroke-width="0.3" />
<path d="M540,15.0 L540,25" stroke="white" stroke-width="1.5" />
<text x="540.0" y="12.5" font-size="10" fill="white" style="font-family:Segoe UI;text-anchor:middle">210</text>
<path d="M550,22.5 L550,white" stroke="white" stroke-width="0.3" />
<path d="M560,22.5 L560,white" stroke="white" stroke-width="0.3" />
<path d="M570,22.5 L570,white" stroke="white" stroke-width="0.3" />
<path d="M580,22.5 L580,white" stroke="white" stroke-width="0.3" />
<path d="M590,20.0 L590,25" stroke="white" stroke-width="0.5" />
<path d="M600,22.5 L600,white" stroke="white" stroke-width="0.3" />
<path d="M610,22.5 L610,white" stroke="white" stroke-width="0.3" />
<path d="M620,22.5 L620,white" stroke="white" stroke-width="0.3" />
<path d="M630,22.5 L630,white" stroke="white" stroke-width="0.3" />
<path d="M640,15.0 L640,25" stroke="white" stroke-width="1.5" />
<text x="640.0" y="12.5" font-size="10" fill="white" style="font-family:Segoe UI;text-anchor:middle">220</text>
<path d="M650,22.5 L650,white" stroke="white" stroke-width="0.3" />
<path d="M660,22.5 L660,white" stroke="white" stroke-width="0.3" />
<path d="M670,22.5 L670,white" stroke="white" stroke-width="0.3" />
<path d="M680,22.5 L680,white" stroke="white" stroke-width="0.3" />
<path d="M690,20.0 L690,25" stroke="white" stroke-width="0.5" />
<path d="M700,22.5 L700,white" stroke="white" stroke-width="0.3" />
<path d="M710,22.5 L710,white" stroke="white" stroke-width="0.3" />
<path d="M720,22.5 L720,white" stroke="white" stroke-width="0.3" />
<path d="M730,22.5 L730,white" stroke="white" stroke-width="0.3" />
<path d="M740,15.0 L740,25" stroke="white" stroke-width="1.5" />
<text x="740.0" y="12.5" font-size="10" fill="white" style="font-family:Segoe UI;text-anchor:middle">230</text>
<path d="M750,22.5 L750,white" stroke="white" stroke-width="0.3" />
<path d="M760,22.5 L760,white" stroke="white" stroke-width="0.3" />
<path d="M770,22.5 L770,white" stroke="white" stroke-width="0.3" />
<path d="M780,22.5 L780,white" stroke="white" stroke-width="0.3" />
<path d="M790,20.0 L790,25" stroke="white" stroke-width="0.5" />
<path d="M800,22.5 L800,white" stroke="white" stroke-width="0.3" />
<path d="M810,22.5 L810,white" stroke="white" stroke-width="0.3" />
<path d="M820,22.5 L820,white" stroke="white" stroke-width="0.3" />
<path d="M830,22.5 L830,white" stroke="white" stroke-width="0.3" />
<path d="M840,15.0 L840,25" stroke="white" stroke-width="1.5" />
<text x="840.0" y="12.5" font-size="10" fill="white" style="font-family:Segoe UI;text-anchor:middle">240</text>
</svg>