<?xml version="1.0" encoding="UTF-8"?>
<svg xmlns="http://www.w3.org/2000/svg" xmlns:xlink="http://www.w3.org/1999/xlink"
     width="490" height="100" viewBox="0 0 490 100">
<defs>
</defs>
<text x="40.0" y="43.5" font-size="16" fill="white" style="font-family:Segoe UI;text-anchor:middle">Cerus</text>
<rect x="80" y="25" width="100" height="25" fill="purple" />
<text x="130.0" y="41.5" font-size="12" fill="white" style="font-family:Segoe UI;text-anchor:middle">Gluttony</text>
<rect x="240" y="25" width="50" height="25" fill="orange" />
<text x="265.0" y="41.5" font-size="12" fill="black" style="font-family:Segoe UI;text-anchor:middle">Rage</text>
<rect x="340" y="25" width="50" height="25" fill="black" />
<text x="365.0" y="41.5" font-size="12" fill="white" style="font-family:Segoe UI;text-anchor:middle">Malice</text>
<rect x="400" y="25" width="50" height="25" fill="red" />
<text x="425.0" y="41.5" font-size="12" fill="white" style="font-family:Segoe UI;text-anchor:middle">Despair</text>
<text x="40.0" y="68.5" font-size="16" fill="white" style="font-family:Segoe UI;text-anchor:middle">Aspects</text>
<rect x="190" y="50" width="50" height="25" fill="green" />
<text x="215.0" y="66.5" font-size="12" fill="white" style="font-family:Segoe UI;text-anchor:middle">Regret</text>
<rect x="340" y="50" width="50" height="25" fill="orange" />
<text x="365.0" y="66.5" font-size="12" fill="black" style="font-family:Segoe UI;text-anchor:middle">Rage</text>
<text x="40.0" y="93.5" font-size="16" fill="white" style="font-family:Segoe UI;text-anchor:middle">Phasing</text>
<rect x="80" y="75" width="30" height="25" fill="yellow" />
<text x="95.0" y="91.5" font-size="12"></text>
<rect x="110" y="75" width="130" height="25" fill="green" />
<text x="175.0" y="91.5" font-size="12"></text>
<rect x="240" y="75" width="100" height="25" fill="yellow" />
<text x="290.0" y="91.5" font-size="12"></text>
<rect x="340" y="75" width="50" height="25" fill="red" />
<text x="365.0" y="91.5" font-size="12"></text>
<rect x="390" y="75" width="100" height="25" fill="orange" />
<text x="440.0" y="91.5" font-size="12"></text>
<path d="M0,25 L490,25" stroke="white" stroke-width="2" />
<path d="M0,75 L490,75" stroke="white" stroke-width="2" />
<path d="M80,0 L80,100" stroke="white" stroke-width="2" />
<path d="M90,20.0 L90,25" stroke="white" stroke-width="0.5" />
<path d="M100,22.5 L100,white" stroke="white" stroke-width="0.3" />
<path d="M110,22.5 L110,white" stroke="white" stroke-width="0.3" />
<path d="M120,22.5 L120,white" stroke="white" stroke-width="0.3" />
<path d="M130,22.5 L130,white" stroke="white" stroke-width="0.3" />
<path d="M140,15.0 L140,25" stroke="white" stroke-width="1.5" />
<text x="140.0" y="12.5" font-size="10" fill="white" style="font-family:Segoe UI;text-anchor:middle">170</text>
<path d="M150,22.5 L150,white" stroke="white" stroke-width="0.3" />
<path d="M160,22.5 L160,white" stroke="white" stroke-width="0.3" />
<path d="M170,22.5 L170,white" stroke="white" stroke-width="0.3" />
<path d="M180,22.5 L180,white" stroke="white" stroke-width="0.3" />
<path d="M190,20.0 L190,25" stroke="white" stroke-width="0.5" />
<path d="M200,22.5 L200,white" stroke="white" stroke-width="0.3" />
<path d="M210,22.5 L210,white" stroke="white" stroke-width="0.3" />
<path d="M220,22.5 L220,white" stroke="white" stroke-width="0.3" />
<path d="M230,22.5 L230,white" stroke="white" stroke-width="0.3" />
<path d="M240,15.0 L240,25" stroke="white" stroke-width="1.5" />
<text x="240.0" y="12.5" font-size="10" fill="white" style="font-family:Segoe UI;text-anchor:middle">180</text>
<path d="M250,22.5 L250,white" stroke="white" stroke-width="0.3" />
<path d="M260,22.5 L260,white" stroke="white" stroke-width="0.3" />
<path d="M270,22.5 L270,white" stroke="white" stroke-width="0.3" />
<path d="M280,22.5 L280,white" stroke="white" stroke-width="0.3" />
<path d="M290,20.0 L290,25" stroke="white" stroke-width="0.5" />
<path d="M300,22.5 L300,white" stroke="white" stroke-width="0.3" />
<path d="M310,22.5 L310,white" stroke="white" stroke-width="0.3" />
<path d="M320,22.5 L320,white" stroke="white" stroke-width="0.3" />
<path d="M330,22.5 L330,white" stroke="white" stroke-width="0.3" />
<path d="M340,15.0 L340,25" stroke="white" stroke-width="1.5" />
<text x="340.0" y="12.5" font-size="10" fill="white" style="font-family:Segoe UI;text-anchor:middle">190</text>
<path d="M350,22.5 L350,white" stroke="white" stroke-width="0.3" />
<path d="M360,22.5 L360,white" stroke="white" stroke-width="0.3" />
<path d="M370,22.5 L370,white" stroke="white" stroke-width="0.3" />
<path d="M380,22.5 L380,white" stroke="white" stroke-width="0.3" />
<path d="M390,20.0 L390,25" stroke="white" stroke-width="0.5" />
<path d="M400,22.5 L400,white" stroke="white" stroke-width="0.3" />
<path d="M410,22.5 L410,white" stroke="white" stroke-width="0.3" />
<path d="M420,22.5 L420,white" stroke="white" stroke-width="0.3" />
<path d="M430,22.5 L430,white" stroke="white" stroke-width="0.3" />
<path d="M440,15.0 L440,25" stroke="white" stroke-width="1.5" />
<text x="440.0" y="12.5" font-size="10" fill="white" style="font-family:Segoe UI;text-anchor:middle">200</text>
<path d="M450,22.5 L450,white" stroke="white" stroke-width="0.3" />
<path d="M460,22.5 L460,white" stroke="white" stroke-width="0.3" />
<path d="M470,22.5 L470,white" stroke="white" stroke-width="0.3" />
<path d="M480,22.5 L480,white" stroke="white" stroke-width="0.3" />
</svg>