<?xml version="1.0" encoding="utf-8" standalone="no"?>
<!DOCTYPE svg PUBLIC "-//W3C//DTD SVG 1.1//EN"
  "http://www.w3.org/Graphics/SVG/1.1/DTD/svg11.dtd">
<svg xmlns:xlink="http://www.w3.org/1999/xlink" width="460.8pt" height="345.6pt" viewBox="0 0 460.8 345.6" xmlns="http://www.w3.org/2000/svg" version="1.1">
 <metadata>
  <rdf:RDF xmlns:dc="http://purl.org/dc/elements/1.1/" xmlns:cc="http://creativecommons.org/ns#" xmlns:rdf="http://www.w3.org/1999/02/22-rdf-syntax-ns#">
   <cc:Work>
    <dc:type rdf:resource="http://purl.org/dc/dcmitype/StillImage"/>
    <dc:date>2024-06-03T19:45:13.912507</dc:date>
    <dc:format>image/svg+xml</dc:format>
    <dc:creator>
     <cc:Agent>
      <dc:title>Matplotlib v3.9.0, https://matplotlib.org/</dc:title>
     </cc:Agent>
    </dc:creator>
   </cc:Work>
  </rdf:RDF>
 </metadata>
 <defs>
  <style type="text/css">*{stroke-linejoin: round; stroke-linecap: butt}</style>
 </defs>
 <g id="figure_1">
  <g id="patch_1">
   <path d="M 0 345.6 
L 460.8 345.6 
L 460.8 0 
L 0 0 
L 0 345.6 
z
" style="fill: none"/>
  </g>
  <g id="axes_1">
   <g id="patch_2">
    <path d="M 57.6 307.584 
L 414.72 307.584 
L 414.72 41.472 
L 57.6 41.472 
L 57.6 307.584 
z
" style="fill: none"/>
   </g>
   <g id="PolyCollection_1">
    <path d="M 57.6 307.584 
L 57.6 -133.4016 
L 67.803429 -128.3328 
L 78.006857 -123.264 
L 88.210286 -118.1952 
L 98.413714 -113.1264 
L 108.617143 -108.0576 
L 118.820571 -102.9888 
L 129.024 -97.92 
L 139.227429 -92.8512 
L 149.430857 -87.7824 
L 159.634286 -82.7136 
L 169.837714 -77.6448 
L 180.041143 -72.576 
L 190.244571 -67.5072 
L 200.448 -62.4384 
L 210.651429 -57.3696 
L 220.854857 -52.3008 
L 231.058286 -47.232 
L 241.261714 -42.1632 
L 251.465143 -37.0944 
L 261.668571 -32.0256 
L 271.872 -26.9568 
L 282.075429 -21.888 
L 292.278857 -16.8192 
L 302.482286 -11.7504 
L 312.685714 -6.6816 
L 322.889143 -1.6128 
L 333.092571 3.456 
L 343.296 8.5248 
L 353.499429 13.5936 
L 363.702857 18.6624 
L 373.906286 23.7312 
L 384.109714 28.8 
L 394.313143 33.8688 
L 404.516571 38.9376 
L 414.72 44.0064 
L 424.923429 49.0752 
L 435.126857 54.144 
L 445.330286 59.2128 
L 455.533714 64.2816 
L 465.737143 69.3504 
L 475.940571 74.4192 
L 486.144 79.488 
L 496.347429 84.5568 
L 506.550857 89.6256 
L 516.754286 94.6944 
L 526.957714 99.7632 
L 537.161143 104.832 
L 547.364571 109.9008 
L 557.568 114.9696 
L 567.771429 120.0384 
L 577.974857 125.1072 
L 588.178286 130.176 
L 598.381714 135.2448 
L 608.585143 140.3136 
L 618.788571 145.3824 
L 628.992 150.4512 
L 639.195429 155.52 
L 649.398857 160.5888 
L 659.602286 165.6576 
L 659.602286 307.584 
L 659.602286 307.584 
L 649.398857 307.584 
L 639.195429 307.584 
L 628.992 307.584 
L 618.788571 307.584 
L 608.585143 307.584 
L 598.381714 307.584 
L 588.178286 307.584 
L 577.974857 307.584 
L 567.771429 307.584 
L 557.568 307.584 
L 547.364571 307.584 
L 537.161143 307.584 
L 526.957714 307.584 
L 516.754286 307.584 
L 506.550857 307.584 
L 496.347429 307.584 
L 486.144 307.584 
L 475.940571 307.584 
L 465.737143 307.584 
L 455.533714 307.584 
L 445.330286 307.584 
L 435.126857 307.584 
L 424.923429 307.584 
L 414.72 307.584 
L 404.516571 307.584 
L 394.313143 307.584 
L 384.109714 307.584 
L 373.906286 307.584 
L 363.702857 307.584 
L 353.499429 307.584 
L 343.296 307.584 
L 333.092571 307.584 
L 322.889143 307.584 
L 312.685714 307.584 
L 302.482286 307.584 
L 292.278857 307.584 
L 282.075429 307.584 
L 271.872 307.584 
L 261.668571 307.584 
L 251.465143 307.584 
L 241.261714 307.584 
L 231.058286 307.584 
L 220.854857 307.584 
L 210.651429 307.584 
L 200.448 307.584 
L 190.244571 307.584 
L 180.041143 307.584 
L 169.837714 307.584 
L 159.634286 307.584 
L 149.430857 307.584 
L 139.227429 307.584 
L 129.024 307.584 
L 118.820571 307.584 
L 108.617143 307.584 
L 98.413714 307.584 
L 88.210286 307.584 
L 78.006857 307.584 
L 67.803429 307.584 
L 57.6 307.584 
z
" clip-path="url(#p1bb265493a)" style="fill: #8c1313; stroke: #8c1313"/>
   </g>
   <g id="PolyCollection_2">
    <path d="M 57.6 307.584 
L 57.6 -82.7136 
L 67.803429 -77.6448 
L 78.006857 -72.576 
L 88.210286 -67.5072 
L 98.413714 -62.4384 
L 108.617143 -57.3696 
L 118.820571 -52.3008 
L 129.024 -47.232 
L 139.227429 -42.1632 
L 149.430857 -37.0944 
L 159.634286 -32.0256 
L 169.837714 -26.9568 
L 180.041143 -21.888 
L 190.244571 -16.8192 
L 200.448 -11.7504 
L 210.651429 -6.6816 
L 220.854857 -1.6128 
L 231.058286 3.456 
L 241.261714 8.5248 
L 251.465143 13.5936 
L 261.668571 18.6624 
L 271.872 23.7312 
L 282.075429 28.8 
L 292.278857 33.8688 
L 302.482286 38.9376 
L 312.685714 44.0064 
L 322.889143 49.0752 
L 333.092571 54.144 
L 343.296 59.2128 
L 353.499429 64.2816 
L 363.702857 69.3504 
L 373.906286 74.4192 
L 384.109714 79.488 
L 394.313143 84.5568 
L 404.516571 89.6256 
L 414.72 94.6944 
L 424.923429 99.7632 
L 435.126857 104.832 
L 445.330286 109.9008 
L 455.533714 114.9696 
L 465.737143 120.0384 
L 475.940571 125.1072 
L 486.144 130.176 
L 496.347429 135.2448 
L 506.550857 140.3136 
L 516.754286 145.3824 
L 526.957714 150.4512 
L 537.161143 155.52 
L 547.364571 160.5888 
L 557.568 165.6576 
L 567.771429 170.7264 
L 577.974857 175.7952 
L 588.178286 180.864 
L 598.381714 185.9328 
L 608.585143 191.0016 
L 618.788571 196.0704 
L 628.992 201.1392 
L 639.195429 206.208 
L 649.398857 211.2768 
L 659.602286 216.3456 
L 659.602286 307.584 
L 659.602286 307.584 
L 649.398857 307.584 
L 639.195429 307.584 
L 628.992 307.584 
L 618.788571 307.584 
L 608.585143 307.584 
L 598.381714 307.584 
L 588.178286 307.584 
L 577.974857 307.584 
L 567.771429 307.584 
L 557.568 307.584 
L 547.364571 307.584 
L 537.161143 307.584 
L 526.957714 307.584 
L 516.754286 307.584 
L 506.550857 307.584 
L 496.347429 307.584 
L 486.144 307.584 
L 475.940571 307.584 
L 465.737143 307.584 
L 455.533714 307.584 
L 445.330286 307.584 
L 435.126857 307.584 
L 424.923429 307.584 
L 414.72 307.584 
L 404.516571 307.584 
L 394.313143 307.584 
L 384.109714 307.584 
L 373.906286 307.584 
L 363.702857 307.584 
L 353.499429 307.584 
L 343.296 307.584 
L 333.092571 307.584 
L 322.889143 307.584 
L 312.685714 307.584 
L 302.482286 307.584 
L 292.278857 307.584 
L 282.075429 307.584 
L 271.872 307.584 
L 261.668571 307.584 
L 251.465143 307.584 
L 241.261714 307.584 
L 231.058286 307.584 
L 220.854857 307.584 
L 210.651429 307.584 
L 200.448 307.584 
L 190.244571 307.584 
L 180.041143 307.584 
L 169.837714 307.584 
L 159.634286 307.584 
L 149.430857 307.584 
L 139.227429 307.584 
L 129.024 307.584 
L 118.820571 307.584 
L 108.617143 307.584 
L 98.413714 307.584 
L 88.210286 307.584 
L 78.006857 307.584 
L 67.803429 307.584 
L 57.6 307.584 
z
" clip-path="url(#p1bb265493a)" style="fill: #992727; stroke: #992727"/>
   </g>
   <g id="PolyCollection_3">
    <path d="M 57.6 307.584 
L 57.6 -32.0256 
L 67.803429 -26.9568 
L 78.006857 -21.888 
L 88.210286 -16.8192 
L 98.413714 -11.7504 
L 108.617143 -6.6816 
L 118.820571 -1.6128 
L 129.024 3.456 
L 139.227429 8.5248 
L 149.430857 13.5936 
L 159.634286 18.6624 
L 169.837714 23.7312 
L 180.041143 28.8 
L 190.244571 33.8688 
L 200.448 38.9376 
L 210.651429 44.0064 
L 220.854857 49.0752 
L 231.058286 54.144 
L 241.261714 59.2128 
L 251.465143 64.2816 
L 261.668571 69.3504 
L 271.872 74.4192 
L 282.075429 79.488 
L 292.278857 84.5568 
L 302.482286 89.6256 
L 312.685714 94.6944 
L 322.889143 99.7632 
L 333.092571 104.832 
L 343.296 109.9008 
L 353.499429 114.9696 
L 363.702857 120.0384 
L 373.906286 125.1072 
L 384.109714 130.176 
L 394.313143 135.2448 
L 404.516571 140.3136 
L 414.72 145.3824 
L 424.923429 150.4512 
L 435.126857 155.52 
L 445.330286 160.5888 
L 455.533714 165.6576 
L 465.737143 170.7264 
L 475.940571 175.7952 
L 486.144 180.864 
L 496.347429 185.9328 
L 506.550857 191.0016 
L 516.754286 196.0704 
L 526.957714 201.1392 
L 537.161143 206.208 
L 547.364571 211.2768 
L 557.568 216.3456 
L 567.771429 221.4144 
L 577.974857 226.4832 
L 588.178286 231.552 
L 598.381714 236.6208 
L 608.585143 241.6896 
L 618.788571 246.7584 
L 628.992 251.8272 
L 639.195429 256.896 
L 649.398857 261.9648 
L 659.602286 267.0336 
L 659.602286 307.584 
L 659.602286 307.584 
L 649.398857 307.584 
L 639.195429 307.584 
L 628.992 307.584 
L 618.788571 307.584 
L 608.585143 307.584 
L 598.381714 307.584 
L 588.178286 307.584 
L 577.974857 307.584 
L 567.771429 307.584 
L 557.568 307.584 
L 547.364571 307.584 
L 537.161143 307.584 
L 526.957714 307.584 
L 516.754286 307.584 
L 506.550857 307.584 
L 496.347429 307.584 
L 486.144 307.584 
L 475.940571 307.584 
L 465.737143 307.584 
L 455.533714 307.584 
L 445.330286 307.584 
L 435.126857 307.584 
L 424.923429 307.584 
L 414.72 307.584 
L 404.516571 307.584 
L 394.313143 307.584 
L 384.109714 307.584 
L 373.906286 307.584 
L 363.702857 307.584 
L 353.499429 307.584 
L 343.296 307.584 
L 333.092571 307.584 
L 322.889143 307.584 
L 312.685714 307.584 
L 302.482286 307.584 
L 292.278857 307.584 
L 282.075429 307.584 
L 271.872 307.584 
L 261.668571 307.584 
L 251.465143 307.584 
L 241.261714 307.584 
L 231.058286 307.584 
L 220.854857 307.584 
L 210.651429 307.584 
L 200.448 307.584 
L 190.244571 307.584 
L 180.041143 307.584 
L 169.837714 307.584 
L 159.634286 307.584 
L 149.430857 307.584 
L 139.227429 307.584 
L 129.024 307.584 
L 118.820571 307.584 
L 108.617143 307.584 
L 98.413714 307.584 
L 88.210286 307.584 
L 78.006857 307.584 
L 67.803429 307.584 
L 57.6 307.584 
z
" clip-path="url(#p1bb265493a)" style="fill: #a63c3c; stroke: #a63c3c"/>
   </g>
   <g id="PolyCollection_4">
    <path d="M 57.6 307.584 
L 57.6 18.6624 
L 67.803429 23.7312 
L 78.006857 28.8 
L 88.210286 33.8688 
L 98.413714 38.9376 
L 108.617143 44.0064 
L 118.820571 49.0752 
L 129.024 54.144 
L 139.227429 59.2128 
L 149.430857 64.2816 
L 159.634286 69.3504 
L 169.837714 74.4192 
L 180.041143 79.488 
L 190.244571 84.5568 
L 200.448 89.6256 
L 210.651429 94.6944 
L 220.854857 99.7632 
L 231.058286 104.832 
L 241.261714 109.9008 
L 251.465143 114.9696 
L 261.668571 120.0384 
L 271.872 125.1072 
L 282.075429 130.176 
L 292.278857 135.2448 
L 302.482286 140.3136 
L 312.685714 145.3824 
L 322.889143 150.4512 
L 333.092571 155.52 
L 343.296 160.5888 
L 353.499429 165.6576 
L 363.702857 170.7264 
L 373.906286 175.7952 
L 384.109714 180.864 
L 394.313143 185.9328 
L 404.516571 191.0016 
L 414.72 196.0704 
L 424.923429 201.1392 
L 435.126857 206.208 
L 445.330286 211.2768 
L 455.533714 216.3456 
L 465.737143 221.4144 
L 475.940571 226.4832 
L 486.144 231.552 
L 496.347429 236.6208 
L 506.550857 241.6896 
L 516.754286 246.7584 
L 526.957714 251.8272 
L 537.161143 256.896 
L 547.364571 261.9648 
L 557.568 267.0336 
L 567.771429 272.1024 
L 577.974857 277.1712 
L 588.178286 282.24 
L 598.381714 287.3088 
L 608.585143 292.3776 
L 618.788571 297.4464 
L 628.992 302.5152 
L 639.195429 307.584 
L 649.398857 312.6528 
L 659.602286 317.7216 
L 659.602286 307.584 
L 659.602286 307.584 
L 649.398857 307.584 
L 639.195429 307.584 
L 628.992 307.584 
L 618.788571 307.584 
L 608.585143 307.584 
L 598.381714 307.584 
L 588.178286 307.584 
L 577.974857 307.584 
L 567.771429 307.584 
L 557.568 307.584 
L 547.364571 307.584 
L 537.161143 307.584 
L 526.957714 307.584 
L 516.754286 307.584 
L 506.550857 307.584 
L 496.347429 307.584 
L 486.144 307.584 
L 475.940571 307.584 
L 465.737143 307.584 
L 455.533714 307.584 
L 445.330286 307.584 
L 435.126857 307.584 
L 424.923429 307.584 
L 414.72 307.584 
L 404.516571 307.584 
L 394.313143 307.584 
L 384.109714 307.584 
L 373.906286 307.584 
L 363.702857 307.584 
L 353.499429 307.584 
L 343.296 307.584 
L 333.092571 307.584 
L 322.889143 307.584 
L 312.685714 307.584 
L 302.482286 307.584 
L 292.278857 307.584 
L 282.075429 307.584 
L 271.872 307.584 
L 261.668571 307.584 
L 251.465143 307.584 
L 241.261714 307.584 
L 231.058286 307.584 
L 220.854857 307.584 
L 210.651429 307.584 
L 200.448 307.584 
L 190.244571 307.584 
L 180.041143 307.584 
L 169.837714 307.584 
L 159.634286 307.584 
L 149.430857 307.584 
L 139.227429 307.584 
L 129.024 307.584 
L 118.820571 307.584 
L 108.617143 307.584 
L 98.413714 307.584 
L 88.210286 307.584 
L 78.006857 307.584 
L 67.803429 307.584 
L 57.6 307.584 
z
" clip-path="url(#p1bb265493a)" style="fill: #b25151; stroke: #b25151"/>
   </g>
   <g id="PolyCollection_5">
    <path d="M 57.6 307.584 
L 57.6 69.3504 
L 67.803429 74.4192 
L 78.006857 79.488 
L 88.210286 84.5568 
L 98.413714 89.6256 
L 108.617143 94.6944 
L 118.820571 99.7632 
L 129.024 104.832 
L 139.227429 109.9008 
L 149.430857 114.9696 
L 159.634286 120.0384 
L 169.837714 125.1072 
L 180.041143 130.176 
L 190.244571 135.2448 
L 200.448 140.3136 
L 210.651429 145.3824 
L 220.854857 150.4512 
L 231.058286 155.52 
L 241.261714 160.5888 
L 251.465143 165.6576 
L 261.668571 170.7264 
L 271.872 175.7952 
L 282.075429 180.864 
L 292.278857 185.9328 
L 302.482286 191.0016 
L 312.685714 196.0704 
L 322.889143 201.1392 
L 333.092571 206.208 
L 343.296 211.2768 
L 353.499429 216.3456 
L 363.702857 221.4144 
L 373.906286 226.4832 
L 384.109714 231.552 
L 394.313143 236.6208 
L 404.516571 241.6896 
L 414.72 246.7584 
L 424.923429 251.8272 
L 435.126857 256.896 
L 445.330286 261.9648 
L 455.533714 267.0336 
L 465.737143 272.1024 
L 475.940571 277.1712 
L 486.144 282.24 
L 496.347429 287.3088 
L 506.550857 292.3776 
L 516.754286 297.4464 
L 526.957714 302.5152 
L 537.161143 307.584 
L 547.364571 312.6528 
L 557.568 317.7216 
L 567.771429 322.7904 
L 577.974857 327.8592 
L 588.178286 332.928 
L 598.381714 337.9968 
L 608.585143 343.0656 
L 618.788571 348.1344 
L 628.992 353.2032 
L 639.195429 358.272 
L 649.398857 363.3408 
L 659.602286 368.4096 
L 659.602286 307.584 
L 659.602286 307.584 
L 649.398857 307.584 
L 639.195429 307.584 
L 628.992 307.584 
L 618.788571 307.584 
L 608.585143 307.584 
L 598.381714 307.584 
L 588.178286 307.584 
L 577.974857 307.584 
L 567.771429 307.584 
L 557.568 307.584 
L 547.364571 307.584 
L 537.161143 307.584 
L 526.957714 307.584 
L 516.754286 307.584 
L 506.550857 307.584 
L 496.347429 307.584 
L 486.144 307.584 
L 475.940571 307.584 
L 465.737143 307.584 
L 455.533714 307.584 
L 445.330286 307.584 
L 435.126857 307.584 
L 424.923429 307.584 
L 414.72 307.584 
L 404.516571 307.584 
L 394.313143 307.584 
L 384.109714 307.584 
L 373.906286 307.584 
L 363.702857 307.584 
L 353.499429 307.584 
L 343.296 307.584 
L 333.092571 307.584 
L 322.889143 307.584 
L 312.685714 307.584 
L 302.482286 307.584 
L 292.278857 307.584 
L 282.075429 307.584 
L 271.872 307.584 
L 261.668571 307.584 
L 251.465143 307.584 
L 241.261714 307.584 
L 231.058286 307.584 
L 220.854857 307.584 
L 210.651429 307.584 
L 200.448 307.584 
L 190.244571 307.584 
L 180.041143 307.584 
L 169.837714 307.584 
L 159.634286 307.584 
L 149.430857 307.584 
L 139.227429 307.584 
L 129.024 307.584 
L 118.820571 307.584 
L 108.617143 307.584 
L 98.413714 307.584 
L 88.210286 307.584 
L 78.006857 307.584 
L 67.803429 307.584 
L 57.6 307.584 
z
" clip-path="url(#p1bb265493a)" style="fill: #bf6767; stroke: #bf6767"/>
   </g>
   <g id="PolyCollection_6">
    <path d="M 57.6 307.584 
L 57.6 120.0384 
L 67.803429 125.1072 
L 78.006857 130.176 
L 88.210286 135.2448 
L 98.413714 140.3136 
L 108.617143 145.3824 
L 118.820571 150.4512 
L 129.024 155.52 
L 139.227429 160.5888 
L 149.430857 165.6576 
L 159.634286 170.7264 
L 169.837714 175.7952 
L 180.041143 180.864 
L 190.244571 185.9328 
L 200.448 191.0016 
L 210.651429 196.0704 
L 220.854857 201.1392 
L 231.058286 206.208 
L 241.261714 211.2768 
L 251.465143 216.3456 
L 261.668571 221.4144 
L 271.872 226.4832 
L 282.075429 231.552 
L 292.278857 236.6208 
L 302.482286 241.6896 
L 312.685714 246.7584 
L 322.889143 251.8272 
L 333.092571 256.896 
L 343.296 261.9648 
L 353.499429 267.0336 
L 363.702857 272.1024 
L 373.906286 277.1712 
L 384.109714 282.24 
L 394.313143 287.3088 
L 404.516571 292.3776 
L 414.72 297.4464 
L 424.923429 302.5152 
L 435.126857 307.584 
L 445.330286 312.6528 
L 455.533714 317.7216 
L 465.737143 322.7904 
L 475.940571 327.8592 
L 486.144 332.928 
L 496.347429 337.9968 
L 506.550857 343.0656 
L 516.754286 348.1344 
L 526.957714 353.2032 
L 537.161143 358.272 
L 547.364571 363.3408 
L 557.568 368.4096 
L 567.771429 373.4784 
L 577.974857 378.5472 
L 588.178286 383.616 
L 598.381714 388.6848 
L 608.585143 393.7536 
L 618.788571 398.8224 
L 628.992 403.8912 
L 639.195429 408.96 
L 649.398857 414.0288 
L 659.602286 419.0976 
L 659.602286 307.584 
L 659.602286 307.584 
L 649.398857 307.584 
L 639.195429 307.584 
L 628.992 307.584 
L 618.788571 307.584 
L 608.585143 307.584 
L 598.381714 307.584 
L 588.178286 307.584 
L 577.974857 307.584 
L 567.771429 307.584 
L 557.568 307.584 
L 547.364571 307.584 
L 537.161143 307.584 
L 526.957714 307.584 
L 516.754286 307.584 
L 506.550857 307.584 
L 496.347429 307.584 
L 486.144 307.584 
L 475.940571 307.584 
L 465.737143 307.584 
L 455.533714 307.584 
L 445.330286 307.584 
L 435.126857 307.584 
L 424.923429 307.584 
L 414.72 307.584 
L 404.516571 307.584 
L 394.313143 307.584 
L 384.109714 307.584 
L 373.906286 307.584 
L 363.702857 307.584 
L 353.499429 307.584 
L 343.296 307.584 
L 333.092571 307.584 
L 322.889143 307.584 
L 312.685714 307.584 
L 302.482286 307.584 
L 292.278857 307.584 
L 282.075429 307.584 
L 271.872 307.584 
L 261.668571 307.584 
L 251.465143 307.584 
L 241.261714 307.584 
L 231.058286 307.584 
L 220.854857 307.584 
L 210.651429 307.584 
L 200.448 307.584 
L 190.244571 307.584 
L 180.041143 307.584 
L 169.837714 307.584 
L 159.634286 307.584 
L 149.430857 307.584 
L 139.227429 307.584 
L 129.024 307.584 
L 118.820571 307.584 
L 108.617143 307.584 
L 98.413714 307.584 
L 88.210286 307.584 
L 78.006857 307.584 
L 67.803429 307.584 
L 57.6 307.584 
z
" clip-path="url(#p1bb265493a)" style="fill: #cc7f7f; stroke: #cc7f7f"/>
   </g>
   <g id="PolyCollection_7">
    <path d="M 57.6 307.584 
L 57.6 170.7264 
L 67.803429 175.7952 
L 78.006857 180.864 
L 88.210286 185.9328 
L 98.413714 191.0016 
L 108.617143 196.0704 
L 118.820571 201.1392 
L 129.024 206.208 
L 139.227429 211.2768 
L 149.430857 216.3456 
L 159.634286 221.4144 
L 169.837714 226.4832 
L 180.041143 231.552 
L 190.244571 236.6208 
L 200.448 241.6896 
L 210.651429 246.7584 
L 220.854857 251.8272 
L 231.058286 256.896 
L 241.261714 261.9648 
L 251.465143 267.0336 
L 261.668571 272.1024 
L 271.872 277.1712 
L 282.075429 282.24 
L 292.278857 287.3088 
L 302.482286 292.3776 
L 312.685714 297.4464 
L 322.889143 302.5152 
L 333.092571 307.584 
L 343.296 312.6528 
L 353.499429 317.7216 
L 363.702857 322.7904 
L 373.906286 327.8592 
L 384.109714 332.928 
L 394.313143 337.9968 
L 404.516571 343.0656 
L 414.72 348.1344 
L 424.923429 353.2032 
L 435.126857 358.272 
L 445.330286 363.3408 
L 455.533714 368.4096 
L 465.737143 373.4784 
L 475.940571 378.5472 
L 486.144 383.616 
L 496.347429 388.6848 
L 506.550857 393.7536 
L 516.754286 398.8224 
L 526.957714 403.8912 
L 537.161143 408.96 
L 547.364571 414.0288 
L 557.568 419.0976 
L 567.771429 424.1664 
L 577.974857 429.2352 
L 588.178286 434.304 
L 598.381714 439.3728 
L 608.585143 444.4416 
L 618.788571 449.5104 
L 628.992 454.5792 
L 639.195429 459.648 
L 649.398857 464.7168 
L 659.602286 469.7856 
L 659.602286 307.584 
L 659.602286 307.584 
L 649.398857 307.584 
L 639.195429 307.584 
L 628.992 307.584 
L 618.788571 307.584 
L 608.585143 307.584 
L 598.381714 307.584 
L 588.178286 307.584 
L 577.974857 307.584 
L 567.771429 307.584 
L 557.568 307.584 
L 547.364571 307.584 
L 537.161143 307.584 
L 526.957714 307.584 
L 516.754286 307.584 
L 506.550857 307.584 
L 496.347429 307.584 
L 486.144 307.584 
L 475.940571 307.584 
L 465.737143 307.584 
L 455.533714 307.584 
L 445.330286 307.584 
L 435.126857 307.584 
L 424.923429 307.584 
L 414.72 307.584 
L 404.516571 307.584 
L 394.313143 307.584 
L 384.109714 307.584 
L 373.906286 307.584 
L 363.702857 307.584 
L 353.499429 307.584 
L 343.296 307.584 
L 333.092571 307.584 
L 322.889143 307.584 
L 312.685714 307.584 
L 302.482286 307.584 
L 292.278857 307.584 
L 282.075429 307.584 
L 271.872 307.584 
L 261.668571 307.584 
L 251.465143 307.584 
L 241.261714 307.584 
L 231.058286 307.584 
L 220.854857 307.584 
L 210.651429 307.584 
L 200.448 307.584 
L 190.244571 307.584 
L 180.041143 307.584 
L 169.837714 307.584 
L 159.634286 307.584 
L 149.430857 307.584 
L 139.227429 307.584 
L 129.024 307.584 
L 118.820571 307.584 
L 108.617143 307.584 
L 98.413714 307.584 
L 88.210286 307.584 
L 78.006857 307.584 
L 67.803429 307.584 
L 57.6 307.584 
z
" clip-path="url(#p1bb265493a)" style="fill: #d99898; stroke: #d99898"/>
   </g>
   <g id="PolyCollection_8">
    <path d="M 57.6 307.584 
L 57.6 221.4144 
L 67.803429 226.4832 
L 78.006857 231.552 
L 88.210286 236.6208 
L 98.413714 241.6896 
L 108.617143 246.7584 
L 118.820571 251.8272 
L 129.024 256.896 
L 139.227429 261.9648 
L 149.430857 267.0336 
L 159.634286 272.1024 
L 169.837714 277.1712 
L 180.041143 282.24 
L 190.244571 287.3088 
L 200.448 292.3776 
L 210.651429 297.4464 
L 220.854857 302.5152 
L 231.058286 307.584 
L 241.261714 312.6528 
L 251.465143 317.7216 
L 261.668571 322.7904 
L 271.872 327.8592 
L 282.075429 332.928 
L 292.278857 337.9968 
L 302.482286 343.0656 
L 312.685714 348.1344 
L 322.889143 353.2032 
L 333.092571 358.272 
L 343.296 363.3408 
L 353.499429 368.4096 
L 363.702857 373.4784 
L 373.906286 378.5472 
L 384.109714 383.616 
L 394.313143 388.6848 
L 404.516571 393.7536 
L 414.72 398.8224 
L 424.923429 403.8912 
L 435.126857 408.96 
L 445.330286 414.0288 
L 455.533714 419.0976 
L 465.737143 424.1664 
L 475.940571 429.2352 
L 486.144 434.304 
L 496.347429 439.3728 
L 506.550857 444.4416 
L 516.754286 449.5104 
L 526.957714 454.5792 
L 537.161143 459.648 
L 547.364571 464.7168 
L 557.568 469.7856 
L 567.771429 474.8544 
L 577.974857 479.9232 
L 588.178286 484.992 
L 598.381714 490.0608 
L 608.585143 495.1296 
L 618.788571 500.1984 
L 628.992 505.2672 
L 639.195429 510.336 
L 649.398857 515.4048 
L 659.602286 520.4736 
L 659.602286 307.584 
L 659.602286 307.584 
L 649.398857 307.584 
L 639.195429 307.584 
L 628.992 307.584 
L 618.788571 307.584 
L 608.585143 307.584 
L 598.381714 307.584 
L 588.178286 307.584 
L 577.974857 307.584 
L 567.771429 307.584 
L 557.568 307.584 
L 547.364571 307.584 
L 537.161143 307.584 
L 526.957714 307.584 
L 516.754286 307.584 
L 506.550857 307.584 
L 496.347429 307.584 
L 486.144 307.584 
L 475.940571 307.584 
L 465.737143 307.584 
L 455.533714 307.584 
L 445.330286 307.584 
L 435.126857 307.584 
L 424.923429 307.584 
L 414.72 307.584 
L 404.516571 307.584 
L 394.313143 307.584 
L 384.109714 307.584 
L 373.906286 307.584 
L 363.702857 307.584 
L 353.499429 307.584 
L 343.296 307.584 
L 333.092571 307.584 
L 322.889143 307.584 
L 312.685714 307.584 
L 302.482286 307.584 
L 292.278857 307.584 
L 282.075429 307.584 
L 271.872 307.584 
L 261.668571 307.584 
L 251.465143 307.584 
L 241.261714 307.584 
L 231.058286 307.584 
L 220.854857 307.584 
L 210.651429 307.584 
L 200.448 307.584 
L 190.244571 307.584 
L 180.041143 307.584 
L 169.837714 307.584 
L 159.634286 307.584 
L 149.430857 307.584 
L 139.227429 307.584 
L 129.024 307.584 
L 118.820571 307.584 
L 108.617143 307.584 
L 98.413714 307.584 
L 88.210286 307.584 
L 78.006857 307.584 
L 67.803429 307.584 
L 57.6 307.584 
z
" clip-path="url(#p1bb265493a)" style="fill: #e6b3b3; stroke: #e6b3b3"/>
   </g>
   <g id="PolyCollection_9">
    <path d="M 57.6 307.584 
L 57.6 272.1024 
L 67.803429 277.1712 
L 78.006857 282.24 
L 88.210286 287.3088 
L 98.413714 292.3776 
L 108.617143 297.4464 
L 118.820571 302.5152 
L 129.024 307.584 
L 139.227429 312.6528 
L 149.430857 317.7216 
L 159.634286 322.7904 
L 169.837714 327.8592 
L 180.041143 332.928 
L 190.244571 337.9968 
L 200.448 343.0656 
L 210.651429 348.1344 
L 220.854857 353.2032 
L 231.058286 358.272 
L 241.261714 363.3408 
L 251.465143 368.4096 
L 261.668571 373.4784 
L 271.872 378.5472 
L 282.075429 383.616 
L 292.278857 388.6848 
L 302.482286 393.7536 
L 312.685714 398.8224 
L 322.889143 403.8912 
L 333.092571 408.96 
L 343.296 414.0288 
L 353.499429 419.0976 
L 363.702857 424.1664 
L 373.906286 429.2352 
L 384.109714 434.304 
L 394.313143 439.3728 
L 404.516571 444.4416 
L 414.72 449.5104 
L 424.923429 454.5792 
L 435.126857 459.648 
L 445.330286 464.7168 
L 455.533714 469.7856 
L 465.737143 474.8544 
L 475.940571 479.9232 
L 486.144 484.992 
L 496.347429 490.0608 
L 506.550857 495.1296 
L 516.754286 500.1984 
L 526.957714 505.2672 
L 537.161143 510.336 
L 547.364571 515.4048 
L 557.568 520.4736 
L 567.771429 525.5424 
L 577.974857 530.6112 
L 588.178286 535.68 
L 598.381714 540.7488 
L 608.585143 545.8176 
L 618.788571 550.8864 
L 628.992 555.9552 
L 639.195429 561.024 
L 649.398857 566.0928 
L 659.602286 571.1616 
L 659.602286 307.584 
L 659.602286 307.584 
L 649.398857 307.584 
L 639.195429 307.584 
L 628.992 307.584 
L 618.788571 307.584 
L 608.585143 307.584 
L 598.381714 307.584 
L 588.178286 307.584 
L 577.974857 307.584 
L 567.771429 307.584 
L 557.568 307.584 
L 547.364571 307.584 
L 537.161143 307.584 
L 526.957714 307.584 
L 516.754286 307.584 
L 506.550857 307.584 
L 496.347429 307.584 
L 486.144 307.584 
L 475.940571 307.584 
L 465.737143 307.584 
L 455.533714 307.584 
L 445.330286 307.584 
L 435.126857 307.584 
L 424.923429 307.584 
L 414.72 307.584 
L 404.516571 307.584 
L 394.313143 307.584 
L 384.109714 307.584 
L 373.906286 307.584 
L 363.702857 307.584 
L 353.499429 307.584 
L 343.296 307.584 
L 333.092571 307.584 
L 322.889143 307.584 
L 312.685714 307.584 
L 302.482286 307.584 
L 292.278857 307.584 
L 282.075429 307.584 
L 271.872 307.584 
L 261.668571 307.584 
L 251.465143 307.584 
L 241.261714 307.584 
L 231.058286 307.584 
L 220.854857 307.584 
L 210.651429 307.584 
L 200.448 307.584 
L 190.244571 307.584 
L 180.041143 307.584 
L 169.837714 307.584 
L 159.634286 307.584 
L 149.430857 307.584 
L 139.227429 307.584 
L 129.024 307.584 
L 118.820571 307.584 
L 108.617143 307.584 
L 98.413714 307.584 
L 88.210286 307.584 
L 78.006857 307.584 
L 67.803429 307.584 
L 57.6 307.584 
z
" clip-path="url(#p1bb265493a)" style="fill: #f2d2d2; stroke: #f2d2d2"/>
   </g>
   <g id="PolyCollection_10">
    <path d="M 57.6 307.584 
L 57.6 322.7904 
L 67.803429 327.8592 
L 78.006857 332.928 
L 88.210286 337.9968 
L 98.413714 343.0656 
L 108.617143 348.1344 
L 118.820571 353.2032 
L 129.024 358.272 
L 139.227429 363.3408 
L 149.430857 368.4096 
L 159.634286 373.4784 
L 169.837714 378.5472 
L 180.041143 383.616 
L 190.244571 388.6848 
L 200.448 393.7536 
L 210.651429 398.8224 
L 220.854857 403.8912 
L 231.058286 408.96 
L 241.261714 414.0288 
L 251.465143 419.0976 
L 261.668571 424.1664 
L 271.872 429.2352 
L 282.075429 434.304 
L 292.278857 439.3728 
L 302.482286 444.4416 
L 312.685714 449.5104 
L 322.889143 454.5792 
L 333.092571 459.648 
L 343.296 464.7168 
L 353.499429 469.7856 
L 363.702857 474.8544 
L 373.906286 479.9232 
L 384.109714 484.992 
L 394.313143 490.0608 
L 404.516571 495.1296 
L 414.72 500.1984 
L 424.923429 505.2672 
L 435.126857 510.336 
L 445.330286 515.4048 
L 455.533714 520.4736 
L 465.737143 525.5424 
L 475.940571 530.6112 
L 486.144 535.68 
L 496.347429 540.7488 
L 506.550857 545.8176 
L 516.754286 550.8864 
L 526.957714 555.9552 
L 537.161143 561.024 
L 547.364571 566.0928 
L 557.568 571.1616 
L 567.771429 576.2304 
L 577.974857 581.2992 
L 588.178286 586.368 
L 598.381714 591.4368 
L 608.585143 596.5056 
L 618.788571 601.5744 
L 628.992 606.6432 
L 639.195429 611.712 
L 649.398857 616.7808 
L 659.602286 621.8496 
L 659.602286 307.584 
L 659.602286 307.584 
L 649.398857 307.584 
L 639.195429 307.584 
L 628.992 307.584 
L 618.788571 307.584 
L 608.585143 307.584 
L 598.381714 307.584 
L 588.178286 307.584 
L 577.974857 307.584 
L 567.771429 307.584 
L 557.568 307.584 
L 547.364571 307.584 
L 537.161143 307.584 
L 526.957714 307.584 
L 516.754286 307.584 
L 506.550857 307.584 
L 496.347429 307.584 
L 486.144 307.584 
L 475.940571 307.584 
L 465.737143 307.584 
L 455.533714 307.584 
L 445.330286 307.584 
L 435.126857 307.584 
L 424.923429 307.584 
L 414.72 307.584 
L 404.516571 307.584 
L 394.313143 307.584 
L 384.109714 307.584 
L 373.906286 307.584 
L 363.702857 307.584 
L 353.499429 307.584 
L 343.296 307.584 
L 333.092571 307.584 
L 322.889143 307.584 
L 312.685714 307.584 
L 302.482286 307.584 
L 292.278857 307.584 
L 282.075429 307.584 
L 271.872 307.584 
L 261.668571 307.584 
L 251.465143 307.584 
L 241.261714 307.584 
L 231.058286 307.584 
L 220.854857 307.584 
L 210.651429 307.584 
L 200.448 307.584 
L 190.244571 307.584 
L 180.041143 307.584 
L 169.837714 307.584 
L 159.634286 307.584 
L 149.430857 307.584 
L 139.227429 307.584 
L 129.024 307.584 
L 118.820571 307.584 
L 108.617143 307.584 
L 98.413714 307.584 
L 88.210286 307.584 
L 78.006857 307.584 
L 67.803429 307.584 
L 57.6 307.584 
z
" clip-path="url(#p1bb265493a)" style="fill: #ffffff; stroke: #ffffff"/>
   </g>
   <g id="matplotlib.axis_1">
    <g id="xtick_1">
     <g id="line2d_1">
      <defs>
       <path id="m1642650ad6" d="M 0 0 
L 0 3.5 
" style="stroke: #c8c8c8; stroke-width: 0.8"/>
      </defs>
      <g>
       <use xlink:href="#m1642650ad6" x="57.6" y="307.584" style="fill: #c8c8c8; stroke: #c8c8c8; stroke-width: 0.8"/>
      </g>
     </g>
     <g id="text_1">
      <!-- 0 -->
      <g style="fill: #c8c8c8" transform="translate(54.41875 322.182437) scale(0.1 -0.1)">
       <defs>
        <path id="DejaVuSans-30" d="M 2034 4250 
Q 1547 4250 1301 3770 
Q 1056 3291 1056 2328 
Q 1056 1369 1301 889 
Q 1547 409 2034 409 
Q 2525 409 2770 889 
Q 3016 1369 3016 2328 
Q 3016 3291 2770 3770 
Q 2525 4250 2034 4250 
z
M 2034 4750 
Q 2819 4750 3233 4129 
Q 3647 3509 3647 2328 
Q 3647 1150 3233 529 
Q 2819 -91 2034 -91 
Q 1250 -91 836 529 
Q 422 1150 422 2328 
Q 422 3509 836 4129 
Q 1250 4750 2034 4750 
z
" transform="scale(0.015625)"/>
       </defs>
       <use xlink:href="#DejaVuSans-30"/>
      </g>
     </g>
    </g>
    <g id="xtick_2">
     <g id="line2d_2">
      <g>
       <use xlink:href="#m1642650ad6" x="108.617143" y="307.584" style="fill: #c8c8c8; stroke: #c8c8c8; stroke-width: 0.8"/>
      </g>
     </g>
     <g id="text_2">
      <!-- 5 -->
      <g style="fill: #c8c8c8" transform="translate(105.435893 322.182437) scale(0.1 -0.1)">
       <defs>
        <path id="DejaVuSans-35" d="M 691 4666 
L 3169 4666 
L 3169 4134 
L 1269 4134 
L 1269 2991 
Q 1406 3038 1543 3061 
Q 1681 3084 1819 3084 
Q 2600 3084 3056 2656 
Q 3513 2228 3513 1497 
Q 3513 744 3044 326 
Q 2575 -91 1722 -91 
Q 1428 -91 1123 -41 
Q 819 9 494 109 
L 494 744 
Q 775 591 1075 516 
Q 1375 441 1709 441 
Q 2250 441 2565 725 
Q 2881 1009 2881 1497 
Q 2881 1984 2565 2268 
Q 2250 2553 1709 2553 
Q 1456 2553 1204 2497 
Q 953 2441 691 2322 
L 691 4666 
z
" transform="scale(0.015625)"/>
       </defs>
       <use xlink:href="#DejaVuSans-35"/>
      </g>
     </g>
    </g>
    <g id="xtick_3">
     <g id="line2d_3">
      <g>
       <use xlink:href="#m1642650ad6" x="159.634286" y="307.584" style="fill: #c8c8c8; stroke: #c8c8c8; stroke-width: 0.8"/>
      </g>
     </g>
     <g id="text_3">
      <!-- 10 -->
      <g style="fill: #c8c8c8" transform="translate(153.271786 322.182437) scale(0.1 -0.1)">
       <defs>
        <path id="DejaVuSans-31" d="M 794 531 
L 1825 531 
L 1825 4091 
L 703 3866 
L 703 4441 
L 1819 4666 
L 2450 4666 
L 2450 531 
L 3481 531 
L 3481 0 
L 794 0 
L 794 531 
z
" transform="scale(0.015625)"/>
       </defs>
       <use xlink:href="#DejaVuSans-31"/>
       <use xlink:href="#DejaVuSans-30" x="63.623047"/>
      </g>
     </g>
    </g>
    <g id="xtick_4">
     <g id="line2d_4">
      <g>
       <use xlink:href="#m1642650ad6" x="210.651429" y="307.584" style="fill: #c8c8c8; stroke: #c8c8c8; stroke-width: 0.8"/>
      </g>
     </g>
     <g id="text_4">
      <!-- 15 -->
      <g style="fill: #c8c8c8" transform="translate(204.288929 322.182437) scale(0.1 -0.1)">
       <use xlink:href="#DejaVuSans-31"/>
       <use xlink:href="#DejaVuSans-35" x="63.623047"/>
      </g>
     </g>
    </g>
    <g id="xtick_5">
     <g id="line2d_5">
      <g>
       <use xlink:href="#m1642650ad6" x="261.668571" y="307.584" style="fill: #c8c8c8; stroke: #c8c8c8; stroke-width: 0.8"/>
      </g>
     </g>
     <g id="text_5">
      <!-- 20 -->
      <g style="fill: #c8c8c8" transform="translate(255.306071 322.182437) scale(0.1 -0.1)">
       <defs>
        <path id="DejaVuSans-32" d="M 1228 531 
L 3431 531 
L 3431 0 
L 469 0 
L 469 531 
Q 828 903 1448 1529 
Q 2069 2156 2228 2338 
Q 2531 2678 2651 2914 
Q 2772 3150 2772 3378 
Q 2772 3750 2511 3984 
Q 2250 4219 1831 4219 
Q 1534 4219 1204 4116 
Q 875 4013 500 3803 
L 500 4441 
Q 881 4594 1212 4672 
Q 1544 4750 1819 4750 
Q 2544 4750 2975 4387 
Q 3406 4025 3406 3419 
Q 3406 3131 3298 2873 
Q 3191 2616 2906 2266 
Q 2828 2175 2409 1742 
Q 1991 1309 1228 531 
z
" transform="scale(0.015625)"/>
       </defs>
       <use xlink:href="#DejaVuSans-32"/>
       <use xlink:href="#DejaVuSans-30" x="63.623047"/>
      </g>
     </g>
    </g>
    <g id="xtick_6">
     <g id="line2d_6">
      <g>
       <use xlink:href="#m1642650ad6" x="312.685714" y="307.584" style="fill: #c8c8c8; stroke: #c8c8c8; stroke-width: 0.8"/>
      </g>
     </g>
     <g id="text_6">
      <!-- 25 -->
      <g style="fill: #c8c8c8" transform="translate(306.323214 322.182437) scale(0.1 -0.1)">
       <use xlink:href="#DejaVuSans-32"/>
       <use xlink:href="#DejaVuSans-35" x="63.623047"/>
      </g>
     </g>
    </g>
    <g id="xtick_7">
     <g id="line2d_7">
      <g>
       <use xlink:href="#m1642650ad6" x="363.702857" y="307.584" style="fill: #c8c8c8; stroke: #c8c8c8; stroke-width: 0.8"/>
      </g>
     </g>
     <g id="text_7">
      <!-- 30 -->
      <g style="fill: #c8c8c8" transform="translate(357.340357 322.182437) scale(0.1 -0.1)">
       <defs>
        <path id="DejaVuSans-33" d="M 2597 2516 
Q 3050 2419 3304 2112 
Q 3559 1806 3559 1356 
Q 3559 666 3084 287 
Q 2609 -91 1734 -91 
Q 1441 -91 1130 -33 
Q 819 25 488 141 
L 488 750 
Q 750 597 1062 519 
Q 1375 441 1716 441 
Q 2309 441 2620 675 
Q 2931 909 2931 1356 
Q 2931 1769 2642 2001 
Q 2353 2234 1838 2234 
L 1294 2234 
L 1294 2753 
L 1863 2753 
Q 2328 2753 2575 2939 
Q 2822 3125 2822 3475 
Q 2822 3834 2567 4026 
Q 2313 4219 1838 4219 
Q 1578 4219 1281 4162 
Q 984 4106 628 3988 
L 628 4550 
Q 988 4650 1302 4700 
Q 1616 4750 1894 4750 
Q 2613 4750 3031 4423 
Q 3450 4097 3450 3541 
Q 3450 3153 3228 2886 
Q 3006 2619 2597 2516 
z
" transform="scale(0.015625)"/>
       </defs>
       <use xlink:href="#DejaVuSans-33"/>
       <use xlink:href="#DejaVuSans-30" x="63.623047"/>
      </g>
     </g>
    </g>
    <g id="xtick_8">
     <g id="line2d_8">
      <g>
       <use xlink:href="#m1642650ad6" x="414.72" y="307.584" style="fill: #c8c8c8; stroke: #c8c8c8; stroke-width: 0.8"/>
      </g>
     </g>
     <g id="text_8">
      <!-- 35 -->
      <g style="fill: #c8c8c8" transform="translate(408.3575 322.182437) scale(0.1 -0.1)">
       <use xlink:href="#DejaVuSans-33"/>
       <use xlink:href="#DejaVuSans-35" x="63.623047"/>
      </g>
     </g>
    </g>
    <g id="text_9">
     <!-- Initial Enraged stacks on Cerus at 10% -->
     <g style="fill: #c8c8c8" transform="translate(139.277187 335.860562) scale(0.1 -0.1)">
      <defs>
       <path id="DejaVuSans-49" d="M 628 4666 
L 1259 4666 
L 1259 0 
L 628 0 
L 628 4666 
z
" transform="scale(0.015625)"/>
       <path id="DejaVuSans-6e" d="M 3513 2113 
L 3513 0 
L 2938 0 
L 2938 2094 
Q 2938 2591 2744 2837 
Q 2550 3084 2163 3084 
Q 1697 3084 1428 2787 
Q 1159 2491 1159 1978 
L 1159 0 
L 581 0 
L 581 3500 
L 1159 3500 
L 1159 2956 
Q 1366 3272 1645 3428 
Q 1925 3584 2291 3584 
Q 2894 3584 3203 3211 
Q 3513 2838 3513 2113 
z
" transform="scale(0.015625)"/>
       <path id="DejaVuSans-69" d="M 603 3500 
L 1178 3500 
L 1178 0 
L 603 0 
L 603 3500 
z
M 603 4863 
L 1178 4863 
L 1178 4134 
L 603 4134 
L 603 4863 
z
" transform="scale(0.015625)"/>
       <path id="DejaVuSans-74" d="M 1172 4494 
L 1172 3500 
L 2356 3500 
L 2356 3053 
L 1172 3053 
L 1172 1153 
Q 1172 725 1289 603 
Q 1406 481 1766 481 
L 2356 481 
L 2356 0 
L 1766 0 
Q 1100 0 847 248 
Q 594 497 594 1153 
L 594 3053 
L 172 3053 
L 172 3500 
L 594 3500 
L 594 4494 
L 1172 4494 
z
" transform="scale(0.015625)"/>
       <path id="DejaVuSans-61" d="M 2194 1759 
Q 1497 1759 1228 1600 
Q 959 1441 959 1056 
Q 959 750 1161 570 
Q 1363 391 1709 391 
Q 2188 391 2477 730 
Q 2766 1069 2766 1631 
L 2766 1759 
L 2194 1759 
z
M 3341 1997 
L 3341 0 
L 2766 0 
L 2766 531 
Q 2569 213 2275 61 
Q 1981 -91 1556 -91 
Q 1019 -91 701 211 
Q 384 513 384 1019 
Q 384 1609 779 1909 
Q 1175 2209 1959 2209 
L 2766 2209 
L 2766 2266 
Q 2766 2663 2505 2880 
Q 2244 3097 1772 3097 
Q 1472 3097 1187 3025 
Q 903 2953 641 2809 
L 641 3341 
Q 956 3463 1253 3523 
Q 1550 3584 1831 3584 
Q 2591 3584 2966 3190 
Q 3341 2797 3341 1997 
z
" transform="scale(0.015625)"/>
       <path id="DejaVuSans-6c" d="M 603 4863 
L 1178 4863 
L 1178 0 
L 603 0 
L 603 4863 
z
" transform="scale(0.015625)"/>
       <path id="DejaVuSans-20" transform="scale(0.015625)"/>
       <path id="DejaVuSans-45" d="M 628 4666 
L 3578 4666 
L 3578 4134 
L 1259 4134 
L 1259 2753 
L 3481 2753 
L 3481 2222 
L 1259 2222 
L 1259 531 
L 3634 531 
L 3634 0 
L 628 0 
L 628 4666 
z
" transform="scale(0.015625)"/>
       <path id="DejaVuSans-72" d="M 2631 2963 
Q 2534 3019 2420 3045 
Q 2306 3072 2169 3072 
Q 1681 3072 1420 2755 
Q 1159 2438 1159 1844 
L 1159 0 
L 581 0 
L 581 3500 
L 1159 3500 
L 1159 2956 
Q 1341 3275 1631 3429 
Q 1922 3584 2338 3584 
Q 2397 3584 2469 3576 
Q 2541 3569 2628 3553 
L 2631 2963 
z
" transform="scale(0.015625)"/>
       <path id="DejaVuSans-67" d="M 2906 1791 
Q 2906 2416 2648 2759 
Q 2391 3103 1925 3103 
Q 1463 3103 1205 2759 
Q 947 2416 947 1791 
Q 947 1169 1205 825 
Q 1463 481 1925 481 
Q 2391 481 2648 825 
Q 2906 1169 2906 1791 
z
M 3481 434 
Q 3481 -459 3084 -895 
Q 2688 -1331 1869 -1331 
Q 1566 -1331 1297 -1286 
Q 1028 -1241 775 -1147 
L 775 -588 
Q 1028 -725 1275 -790 
Q 1522 -856 1778 -856 
Q 2344 -856 2625 -561 
Q 2906 -266 2906 331 
L 2906 616 
Q 2728 306 2450 153 
Q 2172 0 1784 0 
Q 1141 0 747 490 
Q 353 981 353 1791 
Q 353 2603 747 3093 
Q 1141 3584 1784 3584 
Q 2172 3584 2450 3431 
Q 2728 3278 2906 2969 
L 2906 3500 
L 3481 3500 
L 3481 434 
z
" transform="scale(0.015625)"/>
       <path id="DejaVuSans-65" d="M 3597 1894 
L 3597 1613 
L 953 1613 
Q 991 1019 1311 708 
Q 1631 397 2203 397 
Q 2534 397 2845 478 
Q 3156 559 3463 722 
L 3463 178 
Q 3153 47 2828 -22 
Q 2503 -91 2169 -91 
Q 1331 -91 842 396 
Q 353 884 353 1716 
Q 353 2575 817 3079 
Q 1281 3584 2069 3584 
Q 2775 3584 3186 3129 
Q 3597 2675 3597 1894 
z
M 3022 2063 
Q 3016 2534 2758 2815 
Q 2500 3097 2075 3097 
Q 1594 3097 1305 2825 
Q 1016 2553 972 2059 
L 3022 2063 
z
" transform="scale(0.015625)"/>
       <path id="DejaVuSans-64" d="M 2906 2969 
L 2906 4863 
L 3481 4863 
L 3481 0 
L 2906 0 
L 2906 525 
Q 2725 213 2448 61 
Q 2172 -91 1784 -91 
Q 1150 -91 751 415 
Q 353 922 353 1747 
Q 353 2572 751 3078 
Q 1150 3584 1784 3584 
Q 2172 3584 2448 3432 
Q 2725 3281 2906 2969 
z
M 947 1747 
Q 947 1113 1208 752 
Q 1469 391 1925 391 
Q 2381 391 2643 752 
Q 2906 1113 2906 1747 
Q 2906 2381 2643 2742 
Q 2381 3103 1925 3103 
Q 1469 3103 1208 2742 
Q 947 2381 947 1747 
z
" transform="scale(0.015625)"/>
       <path id="DejaVuSans-73" d="M 2834 3397 
L 2834 2853 
Q 2591 2978 2328 3040 
Q 2066 3103 1784 3103 
Q 1356 3103 1142 2972 
Q 928 2841 928 2578 
Q 928 2378 1081 2264 
Q 1234 2150 1697 2047 
L 1894 2003 
Q 2506 1872 2764 1633 
Q 3022 1394 3022 966 
Q 3022 478 2636 193 
Q 2250 -91 1575 -91 
Q 1294 -91 989 -36 
Q 684 19 347 128 
L 347 722 
Q 666 556 975 473 
Q 1284 391 1588 391 
Q 1994 391 2212 530 
Q 2431 669 2431 922 
Q 2431 1156 2273 1281 
Q 2116 1406 1581 1522 
L 1381 1569 
Q 847 1681 609 1914 
Q 372 2147 372 2553 
Q 372 3047 722 3315 
Q 1072 3584 1716 3584 
Q 2034 3584 2315 3537 
Q 2597 3491 2834 3397 
z
" transform="scale(0.015625)"/>
       <path id="DejaVuSans-63" d="M 3122 3366 
L 3122 2828 
Q 2878 2963 2633 3030 
Q 2388 3097 2138 3097 
Q 1578 3097 1268 2742 
Q 959 2388 959 1747 
Q 959 1106 1268 751 
Q 1578 397 2138 397 
Q 2388 397 2633 464 
Q 2878 531 3122 666 
L 3122 134 
Q 2881 22 2623 -34 
Q 2366 -91 2075 -91 
Q 1284 -91 818 406 
Q 353 903 353 1747 
Q 353 2603 823 3093 
Q 1294 3584 2113 3584 
Q 2378 3584 2631 3529 
Q 2884 3475 3122 3366 
z
" transform="scale(0.015625)"/>
       <path id="DejaVuSans-6b" d="M 581 4863 
L 1159 4863 
L 1159 1991 
L 2875 3500 
L 3609 3500 
L 1753 1863 
L 3688 0 
L 2938 0 
L 1159 1709 
L 1159 0 
L 581 0 
L 581 4863 
z
" transform="scale(0.015625)"/>
       <path id="DejaVuSans-6f" d="M 1959 3097 
Q 1497 3097 1228 2736 
Q 959 2375 959 1747 
Q 959 1119 1226 758 
Q 1494 397 1959 397 
Q 2419 397 2687 759 
Q 2956 1122 2956 1747 
Q 2956 2369 2687 2733 
Q 2419 3097 1959 3097 
z
M 1959 3584 
Q 2709 3584 3137 3096 
Q 3566 2609 3566 1747 
Q 3566 888 3137 398 
Q 2709 -91 1959 -91 
Q 1206 -91 779 398 
Q 353 888 353 1747 
Q 353 2609 779 3096 
Q 1206 3584 1959 3584 
z
" transform="scale(0.015625)"/>
       <path id="DejaVuSans-43" d="M 4122 4306 
L 4122 3641 
Q 3803 3938 3442 4084 
Q 3081 4231 2675 4231 
Q 1875 4231 1450 3742 
Q 1025 3253 1025 2328 
Q 1025 1406 1450 917 
Q 1875 428 2675 428 
Q 3081 428 3442 575 
Q 3803 722 4122 1019 
L 4122 359 
Q 3791 134 3420 21 
Q 3050 -91 2638 -91 
Q 1578 -91 968 557 
Q 359 1206 359 2328 
Q 359 3453 968 4101 
Q 1578 4750 2638 4750 
Q 3056 4750 3426 4639 
Q 3797 4528 4122 4306 
z
" transform="scale(0.015625)"/>
       <path id="DejaVuSans-75" d="M 544 1381 
L 544 3500 
L 1119 3500 
L 1119 1403 
Q 1119 906 1312 657 
Q 1506 409 1894 409 
Q 2359 409 2629 706 
Q 2900 1003 2900 1516 
L 2900 3500 
L 3475 3500 
L 3475 0 
L 2900 0 
L 2900 538 
Q 2691 219 2414 64 
Q 2138 -91 1772 -91 
Q 1169 -91 856 284 
Q 544 659 544 1381 
z
M 1991 3584 
L 1991 3584 
z
" transform="scale(0.015625)"/>
       <path id="DejaVuSans-25" d="M 4653 2053 
Q 4381 2053 4226 1822 
Q 4072 1591 4072 1178 
Q 4072 772 4226 539 
Q 4381 306 4653 306 
Q 4919 306 5073 539 
Q 5228 772 5228 1178 
Q 5228 1588 5073 1820 
Q 4919 2053 4653 2053 
z
M 4653 2450 
Q 5147 2450 5437 2106 
Q 5728 1763 5728 1178 
Q 5728 594 5436 251 
Q 5144 -91 4653 -91 
Q 4153 -91 3862 251 
Q 3572 594 3572 1178 
Q 3572 1766 3864 2108 
Q 4156 2450 4653 2450 
z
M 1428 4353 
Q 1159 4353 1004 4120 
Q 850 3888 850 3481 
Q 850 3069 1003 2837 
Q 1156 2606 1428 2606 
Q 1700 2606 1854 2837 
Q 2009 3069 2009 3481 
Q 2009 3884 1853 4118 
Q 1697 4353 1428 4353 
z
M 4250 4750 
L 4750 4750 
L 1831 -91 
L 1331 -91 
L 4250 4750 
z
M 1428 4750 
Q 1922 4750 2215 4408 
Q 2509 4066 2509 3481 
Q 2509 2891 2217 2550 
Q 1925 2209 1428 2209 
Q 931 2209 642 2551 
Q 353 2894 353 3481 
Q 353 4063 643 4406 
Q 934 4750 1428 4750 
z
" transform="scale(0.015625)"/>
      </defs>
      <use xlink:href="#DejaVuSans-49"/>
      <use xlink:href="#DejaVuSans-6e" x="29.492188"/>
      <use xlink:href="#DejaVuSans-69" x="92.871094"/>
      <use xlink:href="#DejaVuSans-74" x="120.654297"/>
      <use xlink:href="#DejaVuSans-69" x="159.863281"/>
      <use xlink:href="#DejaVuSans-61" x="187.646484"/>
      <use xlink:href="#DejaVuSans-6c" x="248.925781"/>
      <use xlink:href="#DejaVuSans-20" x="276.708984"/>
      <use xlink:href="#DejaVuSans-45" x="308.496094"/>
      <use xlink:href="#DejaVuSans-6e" x="371.679688"/>
      <use xlink:href="#DejaVuSans-72" x="435.058594"/>
      <use xlink:href="#DejaVuSans-61" x="476.171875"/>
      <use xlink:href="#DejaVuSans-67" x="537.451172"/>
      <use xlink:href="#DejaVuSans-65" x="600.927734"/>
      <use xlink:href="#DejaVuSans-64" x="662.451172"/>
      <use xlink:href="#DejaVuSans-20" x="725.927734"/>
      <use xlink:href="#DejaVuSans-73" x="757.714844"/>
      <use xlink:href="#DejaVuSans-74" x="809.814453"/>
      <use xlink:href="#DejaVuSans-61" x="849.023438"/>
      <use xlink:href="#DejaVuSans-63" x="910.302734"/>
      <use xlink:href="#DejaVuSans-6b" x="965.283203"/>
      <use xlink:href="#DejaVuSans-73" x="1023.193359"/>
      <use xlink:href="#DejaVuSans-20" x="1075.292969"/>
      <use xlink:href="#DejaVuSans-6f" x="1107.080078"/>
      <use xlink:href="#DejaVuSans-6e" x="1168.261719"/>
      <use xlink:href="#DejaVuSans-20" x="1231.640625"/>
      <use xlink:href="#DejaVuSans-43" x="1263.427734"/>
      <use xlink:href="#DejaVuSans-65" x="1333.251953"/>
      <use xlink:href="#DejaVuSans-72" x="1394.775391"/>
      <use xlink:href="#DejaVuSans-75" x="1435.888672"/>
      <use xlink:href="#DejaVuSans-73" x="1499.267578"/>
      <use xlink:href="#DejaVuSans-20" x="1551.367188"/>
      <use xlink:href="#DejaVuSans-61" x="1583.154297"/>
      <use xlink:href="#DejaVuSans-74" x="1644.433594"/>
      <use xlink:href="#DejaVuSans-20" x="1683.642578"/>
      <use xlink:href="#DejaVuSans-31" x="1715.429688"/>
      <use xlink:href="#DejaVuSans-30" x="1779.052734"/>
      <use xlink:href="#DejaVuSans-25" x="1842.675781"/>
     </g>
    </g>
   </g>
   <g id="matplotlib.axis_2">
    <g id="ytick_1">
     <g id="line2d_9">
      <defs>
       <path id="m736d293560" d="M 0 0 
L -3.5 0 
" style="stroke: #c8c8c8; stroke-width: 0.8"/>
      </defs>
      <g>
       <use xlink:href="#m736d293560" x="57.6" y="307.584" style="fill: #c8c8c8; stroke: #c8c8c8; stroke-width: 0.8"/>
      </g>
     </g>
     <g id="text_10">
      <!-- 0 -->
      <g style="fill: #c8c8c8" transform="translate(44.2375 311.383219) scale(0.1 -0.1)">
       <use xlink:href="#DejaVuSans-30"/>
      </g>
     </g>
    </g>
    <g id="ytick_2">
     <g id="line2d_10">
      <g>
       <use xlink:href="#m736d293560" x="57.6" y="269.568" style="fill: #c8c8c8; stroke: #c8c8c8; stroke-width: 0.8"/>
      </g>
     </g>
     <g id="text_11">
      <!-- 10 -->
      <g style="fill: #c8c8c8" transform="translate(37.875 273.367219) scale(0.1 -0.1)">
       <use xlink:href="#DejaVuSans-31"/>
       <use xlink:href="#DejaVuSans-30" x="63.623047"/>
      </g>
     </g>
    </g>
    <g id="ytick_3">
     <g id="line2d_11">
      <g>
       <use xlink:href="#m736d293560" x="57.6" y="231.552" style="fill: #c8c8c8; stroke: #c8c8c8; stroke-width: 0.8"/>
      </g>
     </g>
     <g id="text_12">
      <!-- 20 -->
      <g style="fill: #c8c8c8" transform="translate(37.875 235.351219) scale(0.1 -0.1)">
       <use xlink:href="#DejaVuSans-32"/>
       <use xlink:href="#DejaVuSans-30" x="63.623047"/>
      </g>
     </g>
    </g>
    <g id="ytick_4">
     <g id="line2d_12">
      <g>
       <use xlink:href="#m736d293560" x="57.6" y="193.536" style="fill: #c8c8c8; stroke: #c8c8c8; stroke-width: 0.8"/>
      </g>
     </g>
     <g id="text_13">
      <!-- 30 -->
      <g style="fill: #c8c8c8" transform="translate(37.875 197.335219) scale(0.1 -0.1)">
       <use xlink:href="#DejaVuSans-33"/>
       <use xlink:href="#DejaVuSans-30" x="63.623047"/>
      </g>
     </g>
    </g>
    <g id="ytick_5">
     <g id="line2d_13">
      <g>
       <use xlink:href="#m736d293560" x="57.6" y="155.52" style="fill: #c8c8c8; stroke: #c8c8c8; stroke-width: 0.8"/>
      </g>
     </g>
     <g id="text_14">
      <!-- 40 -->
      <g style="fill: #c8c8c8" transform="translate(37.875 159.319219) scale(0.1 -0.1)">
       <defs>
        <path id="DejaVuSans-34" d="M 2419 4116 
L 825 1625 
L 2419 1625 
L 2419 4116 
z
M 2253 4666 
L 3047 4666 
L 3047 1625 
L 3713 1625 
L 3713 1100 
L 3047 1100 
L 3047 0 
L 2419 0 
L 2419 1100 
L 313 1100 
L 313 1709 
L 2253 4666 
z
" transform="scale(0.015625)"/>
       </defs>
       <use xlink:href="#DejaVuSans-34"/>
       <use xlink:href="#DejaVuSans-30" x="63.623047"/>
      </g>
     </g>
    </g>
    <g id="ytick_6">
     <g id="line2d_14">
      <g>
       <use xlink:href="#m736d293560" x="57.6" y="117.504" style="fill: #c8c8c8; stroke: #c8c8c8; stroke-width: 0.8"/>
      </g>
     </g>
     <g id="text_15">
      <!-- 50 -->
      <g style="fill: #c8c8c8" transform="translate(37.875 121.303219) scale(0.1 -0.1)">
       <use xlink:href="#DejaVuSans-35"/>
       <use xlink:href="#DejaVuSans-30" x="63.623047"/>
      </g>
     </g>
    </g>
    <g id="ytick_7">
     <g id="line2d_15">
      <g>
       <use xlink:href="#m736d293560" x="57.6" y="79.488" style="fill: #c8c8c8; stroke: #c8c8c8; stroke-width: 0.8"/>
      </g>
     </g>
     <g id="text_16">
      <!-- 60 -->
      <g style="fill: #c8c8c8" transform="translate(37.875 83.287219) scale(0.1 -0.1)">
       <defs>
        <path id="DejaVuSans-36" d="M 2113 2584 
Q 1688 2584 1439 2293 
Q 1191 2003 1191 1497 
Q 1191 994 1439 701 
Q 1688 409 2113 409 
Q 2538 409 2786 701 
Q 3034 994 3034 1497 
Q 3034 2003 2786 2293 
Q 2538 2584 2113 2584 
z
M 3366 4563 
L 3366 3988 
Q 3128 4100 2886 4159 
Q 2644 4219 2406 4219 
Q 1781 4219 1451 3797 
Q 1122 3375 1075 2522 
Q 1259 2794 1537 2939 
Q 1816 3084 2150 3084 
Q 2853 3084 3261 2657 
Q 3669 2231 3669 1497 
Q 3669 778 3244 343 
Q 2819 -91 2113 -91 
Q 1303 -91 875 529 
Q 447 1150 447 2328 
Q 447 3434 972 4092 
Q 1497 4750 2381 4750 
Q 2619 4750 2861 4703 
Q 3103 4656 3366 4563 
z
" transform="scale(0.015625)"/>
       </defs>
       <use xlink:href="#DejaVuSans-36"/>
       <use xlink:href="#DejaVuSans-30" x="63.623047"/>
      </g>
     </g>
    </g>
    <g id="ytick_8">
     <g id="line2d_16">
      <g>
       <use xlink:href="#m736d293560" x="57.6" y="41.472" style="fill: #c8c8c8; stroke: #c8c8c8; stroke-width: 0.8"/>
      </g>
     </g>
     <g id="text_17">
      <!-- 70 -->
      <g style="fill: #c8c8c8" transform="translate(37.875 45.271219) scale(0.1 -0.1)">
       <defs>
        <path id="DejaVuSans-37" d="M 525 4666 
L 3525 4666 
L 3525 4397 
L 1831 0 
L 1172 0 
L 2766 4134 
L 525 4134 
L 525 4666 
z
" transform="scale(0.015625)"/>
       </defs>
       <use xlink:href="#DejaVuSans-37"/>
       <use xlink:href="#DejaVuSans-30" x="63.623047"/>
      </g>
     </g>
    </g>
    <g id="text_18">
     <!-- Minimum time before death -->
     <g style="fill: #c8c8c8" transform="translate(31.795312 244.295187) rotate(-90) scale(0.1 -0.1)">
      <defs>
       <path id="DejaVuSans-4d" d="M 628 4666 
L 1569 4666 
L 2759 1491 
L 3956 4666 
L 4897 4666 
L 4897 0 
L 4281 0 
L 4281 4097 
L 3078 897 
L 2444 897 
L 1241 4097 
L 1241 0 
L 628 0 
L 628 4666 
z
" transform="scale(0.015625)"/>
       <path id="DejaVuSans-6d" d="M 3328 2828 
Q 3544 3216 3844 3400 
Q 4144 3584 4550 3584 
Q 5097 3584 5394 3201 
Q 5691 2819 5691 2113 
L 5691 0 
L 5113 0 
L 5113 2094 
Q 5113 2597 4934 2840 
Q 4756 3084 4391 3084 
Q 3944 3084 3684 2787 
Q 3425 2491 3425 1978 
L 3425 0 
L 2847 0 
L 2847 2094 
Q 2847 2600 2669 2842 
Q 2491 3084 2119 3084 
Q 1678 3084 1418 2786 
Q 1159 2488 1159 1978 
L 1159 0 
L 581 0 
L 581 3500 
L 1159 3500 
L 1159 2956 
Q 1356 3278 1631 3431 
Q 1906 3584 2284 3584 
Q 2666 3584 2933 3390 
Q 3200 3197 3328 2828 
z
" transform="scale(0.015625)"/>
       <path id="DejaVuSans-62" d="M 3116 1747 
Q 3116 2381 2855 2742 
Q 2594 3103 2138 3103 
Q 1681 3103 1420 2742 
Q 1159 2381 1159 1747 
Q 1159 1113 1420 752 
Q 1681 391 2138 391 
Q 2594 391 2855 752 
Q 3116 1113 3116 1747 
z
M 1159 2969 
Q 1341 3281 1617 3432 
Q 1894 3584 2278 3584 
Q 2916 3584 3314 3078 
Q 3713 2572 3713 1747 
Q 3713 922 3314 415 
Q 2916 -91 2278 -91 
Q 1894 -91 1617 61 
Q 1341 213 1159 525 
L 1159 0 
L 581 0 
L 581 4863 
L 1159 4863 
L 1159 2969 
z
" transform="scale(0.015625)"/>
       <path id="DejaVuSans-66" d="M 2375 4863 
L 2375 4384 
L 1825 4384 
Q 1516 4384 1395 4259 
Q 1275 4134 1275 3809 
L 1275 3500 
L 2222 3500 
L 2222 3053 
L 1275 3053 
L 1275 0 
L 697 0 
L 697 3053 
L 147 3053 
L 147 3500 
L 697 3500 
L 697 3744 
Q 697 4328 969 4595 
Q 1241 4863 1831 4863 
L 2375 4863 
z
" transform="scale(0.015625)"/>
       <path id="DejaVuSans-68" d="M 3513 2113 
L 3513 0 
L 2938 0 
L 2938 2094 
Q 2938 2591 2744 2837 
Q 2550 3084 2163 3084 
Q 1697 3084 1428 2787 
Q 1159 2491 1159 1978 
L 1159 0 
L 581 0 
L 581 4863 
L 1159 4863 
L 1159 2956 
Q 1366 3272 1645 3428 
Q 1925 3584 2291 3584 
Q 2894 3584 3203 3211 
Q 3513 2838 3513 2113 
z
" transform="scale(0.015625)"/>
      </defs>
      <use xlink:href="#DejaVuSans-4d"/>
      <use xlink:href="#DejaVuSans-69" x="86.279297"/>
      <use xlink:href="#DejaVuSans-6e" x="114.0625"/>
      <use xlink:href="#DejaVuSans-69" x="177.441406"/>
      <use xlink:href="#DejaVuSans-6d" x="205.224609"/>
      <use xlink:href="#DejaVuSans-75" x="302.636719"/>
      <use xlink:href="#DejaVuSans-6d" x="366.015625"/>
      <use xlink:href="#DejaVuSans-20" x="463.427734"/>
      <use xlink:href="#DejaVuSans-74" x="495.214844"/>
      <use xlink:href="#DejaVuSans-69" x="534.423828"/>
      <use xlink:href="#DejaVuSans-6d" x="562.207031"/>
      <use xlink:href="#DejaVuSans-65" x="659.619141"/>
      <use xlink:href="#DejaVuSans-20" x="721.142578"/>
      <use xlink:href="#DejaVuSans-62" x="752.929688"/>
      <use xlink:href="#DejaVuSans-65" x="816.40625"/>
      <use xlink:href="#DejaVuSans-66" x="877.929688"/>
      <use xlink:href="#DejaVuSans-6f" x="913.134766"/>
      <use xlink:href="#DejaVuSans-72" x="974.316406"/>
      <use xlink:href="#DejaVuSans-65" x="1013.179688"/>
      <use xlink:href="#DejaVuSans-20" x="1074.703125"/>
      <use xlink:href="#DejaVuSans-64" x="1106.490234"/>
      <use xlink:href="#DejaVuSans-65" x="1169.966797"/>
      <use xlink:href="#DejaVuSans-61" x="1231.490234"/>
      <use xlink:href="#DejaVuSans-74" x="1292.769531"/>
      <use xlink:href="#DejaVuSans-68" x="1331.978516"/>
     </g>
    </g>
   </g>
   <g id="line2d_17">
    <path d="M 324.122701 -1 
L 333.092571 3.456 
L 343.296 8.5248 
L 353.499429 13.5936 
L 363.702857 18.6624 
L 373.906286 23.7312 
L 384.109714 28.8 
L 394.313143 33.8688 
L 404.516571 38.9376 
L 414.72 44.0064 
L 424.923429 49.0752 
L 435.126857 54.144 
L 445.330286 59.2128 
L 455.533714 64.2816 
L 461.8 67.394529 
" clip-path="url(#p1bb265493a)" style="fill: none; stroke: #8c1313; stroke-width: 1.5; stroke-linecap: square"/>
   </g>
   <g id="line2d_18">
    <path d="M 222.088416 -1 
L 231.058286 3.456 
L 241.261714 8.5248 
L 251.465143 13.5936 
L 261.668571 18.6624 
L 271.872 23.7312 
L 282.075429 28.8 
L 292.278857 33.8688 
L 302.482286 38.9376 
L 312.685714 44.0064 
L 322.889143 49.0752 
L 333.092571 54.144 
L 343.296 59.2128 
L 353.499429 64.2816 
L 363.702857 69.3504 
L 373.906286 74.4192 
L 384.109714 79.488 
L 394.313143 84.5568 
L 404.516571 89.6256 
L 414.72 94.6944 
L 424.923429 99.7632 
L 435.126857 104.832 
L 445.330286 109.9008 
L 455.533714 114.9696 
L 461.8 118.082529 
" clip-path="url(#p1bb265493a)" style="fill: none; stroke: #992727; stroke-width: 1.5; stroke-linecap: square"/>
   </g>
   <g id="line2d_19">
    <path d="M 120.05413 -1 
L 129.024 3.456 
L 139.227429 8.5248 
L 149.430857 13.5936 
L 159.634286 18.6624 
L 169.837714 23.7312 
L 180.041143 28.8 
L 190.244571 33.8688 
L 200.448 38.9376 
L 210.651429 44.0064 
L 220.854857 49.0752 
L 231.058286 54.144 
L 241.261714 59.2128 
L 251.465143 64.2816 
L 261.668571 69.3504 
L 271.872 74.4192 
L 282.075429 79.488 
L 292.278857 84.5568 
L 302.482286 89.6256 
L 312.685714 94.6944 
L 322.889143 99.7632 
L 333.092571 104.832 
L 343.296 109.9008 
L 353.499429 114.9696 
L 363.702857 120.0384 
L 373.906286 125.1072 
L 384.109714 130.176 
L 394.313143 135.2448 
L 404.516571 140.3136 
L 414.72 145.3824 
L 424.923429 150.4512 
L 435.126857 155.52 
L 445.330286 160.5888 
L 455.533714 165.6576 
L 461.8 168.770529 
" clip-path="url(#p1bb265493a)" style="fill: none; stroke: #a63c3c; stroke-width: 1.5; stroke-linecap: square"/>
   </g>
   <g id="line2d_20">
    <path d="M 57.6 18.6624 
L 67.803429 23.7312 
L 78.006857 28.8 
L 88.210286 33.8688 
L 98.413714 38.9376 
L 108.617143 44.0064 
L 118.820571 49.0752 
L 129.024 54.144 
L 139.227429 59.2128 
L 149.430857 64.2816 
L 159.634286 69.3504 
L 169.837714 74.4192 
L 180.041143 79.488 
L 190.244571 84.5568 
L 200.448 89.6256 
L 210.651429 94.6944 
L 220.854857 99.7632 
L 231.058286 104.832 
L 241.261714 109.9008 
L 251.465143 114.9696 
L 261.668571 120.0384 
L 271.872 125.1072 
L 282.075429 130.176 
L 292.278857 135.2448 
L 302.482286 140.3136 
L 312.685714 145.3824 
L 322.889143 150.4512 
L 333.092571 155.52 
L 343.296 160.5888 
L 353.499429 165.6576 
L 363.702857 170.7264 
L 373.906286 175.7952 
L 384.109714 180.864 
L 394.313143 185.9328 
L 404.516571 191.0016 
L 414.72 196.0704 
L 424.923429 201.1392 
L 435.126857 206.208 
L 445.330286 211.2768 
L 455.533714 216.3456 
L 461.8 219.458529 
" clip-path="url(#p1bb265493a)" style="fill: none; stroke: #b25151; stroke-width: 1.5; stroke-linecap: square"/>
   </g>
   <g id="line2d_21">
    <path d="M 57.6 69.3504 
L 67.803429 74.4192 
L 78.006857 79.488 
L 88.210286 84.5568 
L 98.413714 89.6256 
L 108.617143 94.6944 
L 118.820571 99.7632 
L 129.024 104.832 
L 139.227429 109.9008 
L 149.430857 114.9696 
L 159.634286 120.0384 
L 169.837714 125.1072 
L 180.041143 130.176 
L 190.244571 135.2448 
L 200.448 140.3136 
L 210.651429 145.3824 
L 220.854857 150.4512 
L 231.058286 155.52 
L 241.261714 160.5888 
L 251.465143 165.6576 
L 261.668571 170.7264 
L 271.872 175.7952 
L 282.075429 180.864 
L 292.278857 185.9328 
L 302.482286 191.0016 
L 312.685714 196.0704 
L 322.889143 201.1392 
L 333.092571 206.208 
L 343.296 211.2768 
L 353.499429 216.3456 
L 363.702857 221.4144 
L 373.906286 226.4832 
L 384.109714 231.552 
L 394.313143 236.6208 
L 404.516571 241.6896 
L 414.72 246.7584 
L 424.923429 251.8272 
L 435.126857 256.896 
L 445.330286 261.9648 
L 455.533714 267.0336 
L 461.8 270.146529 
" clip-path="url(#p1bb265493a)" style="fill: none; stroke: #bf6767; stroke-width: 1.5; stroke-linecap: square"/>
   </g>
   <g id="line2d_22">
    <path d="M 57.6 120.0384 
L 67.803429 125.1072 
L 78.006857 130.176 
L 88.210286 135.2448 
L 98.413714 140.3136 
L 108.617143 145.3824 
L 118.820571 150.4512 
L 129.024 155.52 
L 139.227429 160.5888 
L 149.430857 165.6576 
L 159.634286 170.7264 
L 169.837714 175.7952 
L 180.041143 180.864 
L 190.244571 185.9328 
L 200.448 191.0016 
L 210.651429 196.0704 
L 220.854857 201.1392 
L 231.058286 206.208 
L 241.261714 211.2768 
L 251.465143 216.3456 
L 261.668571 221.4144 
L 271.872 226.4832 
L 282.075429 231.552 
L 292.278857 236.6208 
L 302.482286 241.6896 
L 312.685714 246.7584 
L 322.889143 251.8272 
L 333.092571 256.896 
L 343.296 261.9648 
L 353.499429 267.0336 
L 363.702857 272.1024 
L 373.906286 277.1712 
L 384.109714 282.24 
L 394.313143 287.3088 
L 404.516571 292.3776 
L 414.72 297.4464 
L 424.923429 302.5152 
L 435.126857 307.584 
L 445.330286 312.6528 
L 455.533714 317.7216 
L 461.8 320.834529 
" clip-path="url(#p1bb265493a)" style="fill: none; stroke: #cc7f7f; stroke-width: 1.5; stroke-linecap: square"/>
   </g>
   <g id="line2d_23">
    <path d="M 57.6 170.7264 
L 67.803429 175.7952 
L 78.006857 180.864 
L 88.210286 185.9328 
L 98.413714 191.0016 
L 108.617143 196.0704 
L 118.820571 201.1392 
L 129.024 206.208 
L 139.227429 211.2768 
L 149.430857 216.3456 
L 159.634286 221.4144 
L 169.837714 226.4832 
L 180.041143 231.552 
L 190.244571 236.6208 
L 200.448 241.6896 
L 210.651429 246.7584 
L 220.854857 251.8272 
L 231.058286 256.896 
L 241.261714 261.9648 
L 251.465143 267.0336 
L 261.668571 272.1024 
L 271.872 277.1712 
L 282.075429 282.24 
L 292.278857 287.3088 
L 302.482286 292.3776 
L 312.685714 297.4464 
L 322.889143 302.5152 
L 333.092571 307.584 
L 343.296 312.6528 
L 353.499429 317.7216 
L 363.702857 322.7904 
L 373.906286 327.8592 
L 384.109714 332.928 
L 394.313143 337.9968 
L 404.516571 343.0656 
L 411.631273 346.6 
" clip-path="url(#p1bb265493a)" style="fill: none; stroke: #d99898; stroke-width: 1.5; stroke-linecap: square"/>
   </g>
   <g id="line2d_24">
    <path d="M 57.6 221.4144 
L 67.803429 226.4832 
L 78.006857 231.552 
L 88.210286 236.6208 
L 98.413714 241.6896 
L 108.617143 246.7584 
L 118.820571 251.8272 
L 129.024 256.896 
L 139.227429 261.9648 
L 149.430857 267.0336 
L 159.634286 272.1024 
L 169.837714 277.1712 
L 180.041143 282.24 
L 190.244571 287.3088 
L 200.448 292.3776 
L 210.651429 297.4464 
L 220.854857 302.5152 
L 231.058286 307.584 
L 241.261714 312.6528 
L 251.465143 317.7216 
L 261.668571 322.7904 
L 271.872 327.8592 
L 282.075429 332.928 
L 292.278857 337.9968 
L 302.482286 343.0656 
L 309.596987 346.6 
" clip-path="url(#p1bb265493a)" style="fill: none; stroke: #e6b3b3; stroke-width: 1.5; stroke-linecap: square"/>
   </g>
   <g id="line2d_25">
    <path d="M 57.6 272.1024 
L 67.803429 277.1712 
L 78.006857 282.24 
L 88.210286 287.3088 
L 98.413714 292.3776 
L 108.617143 297.4464 
L 118.820571 302.5152 
L 129.024 307.584 
L 139.227429 312.6528 
L 149.430857 317.7216 
L 159.634286 322.7904 
L 169.837714 327.8592 
L 180.041143 332.928 
L 190.244571 337.9968 
L 200.448 343.0656 
L 207.562701 346.6 
" clip-path="url(#p1bb265493a)" style="fill: none; stroke: #f2d2d2; stroke-width: 1.5; stroke-linecap: square"/>
   </g>
   <g id="line2d_26">
    <path d="M 57.6 322.7904 
L 67.803429 327.8592 
L 78.006857 332.928 
L 88.210286 337.9968 
L 98.413714 343.0656 
L 105.528416 346.6 
" clip-path="url(#p1bb265493a)" style="fill: none; stroke: #ffffff; stroke-width: 1.5; stroke-linecap: square"/>
   </g>
   <g id="line2d_27">
    <path d="M 57.6 54.144 
L 67.803429 59.2128 
L 78.006857 64.2816 
L 88.210286 69.3504 
L 98.413714 74.4192 
L 108.617143 79.488 
L 118.820571 84.5568 
L 129.024 89.6256 
L 139.227429 94.6944 
L 149.430857 99.7632 
L 159.634286 104.832 
L 169.837714 109.9008 
L 180.041143 114.9696 
L 190.244571 120.0384 
L 200.448 125.1072 
L 210.651429 130.176 
L 220.854857 135.2448 
L 231.058286 140.3136 
L 241.261714 145.3824 
L 251.465143 150.4512 
L 261.668571 155.52 
L 271.872 160.5888 
L 282.075429 165.6576 
L 292.278857 170.7264 
L 302.482286 175.7952 
L 312.685714 180.864 
L 322.889143 185.9328 
L 333.092571 191.0016 
L 343.296 196.0704 
L 353.499429 201.1392 
L 363.702857 206.208 
L 373.906286 211.2768 
L 384.109714 216.3456 
L 394.313143 221.4144 
L 404.516571 226.4832 
L 414.72 231.552 
L 424.923429 236.6208 
L 435.126857 241.6896 
L 445.330286 246.7584 
L 455.533714 251.8272 
L 461.8 254.940129 
" clip-path="url(#p1bb265493a)" style="fill: none; stroke: #008000; stroke-width: 1.5; stroke-linecap: square"/>
   </g>
   <g id="line2d_28">
    <path d="M 57.6 94.6944 
L 67.803429 99.7632 
L 78.006857 104.832 
L 88.210286 109.9008 
L 98.413714 114.9696 
L 108.617143 120.0384 
L 118.820571 125.1072 
L 129.024 130.176 
L 139.227429 135.2448 
L 149.430857 140.3136 
L 159.634286 145.3824 
L 169.837714 150.4512 
L 180.041143 155.52 
L 190.244571 160.5888 
L 200.448 165.6576 
L 210.651429 170.7264 
L 220.854857 175.7952 
L 231.058286 180.864 
L 241.261714 185.9328 
L 251.465143 191.0016 
L 261.668571 196.0704 
L 271.872 201.1392 
L 282.075429 206.208 
L 292.278857 211.2768 
L 302.482286 216.3456 
L 312.685714 221.4144 
L 322.889143 226.4832 
L 333.092571 231.552 
L 343.296 236.6208 
L 353.499429 241.6896 
L 363.702857 246.7584 
L 373.906286 251.8272 
L 384.109714 256.896 
L 394.313143 261.9648 
L 404.516571 267.0336 
L 414.72 272.1024 
L 424.923429 277.1712 
L 435.126857 282.24 
L 445.330286 287.3088 
L 455.533714 292.3776 
L 461.8 295.490529 
" clip-path="url(#p1bb265493a)" style="fill: none; stroke: #000000; stroke-width: 1.5; stroke-linecap: square"/>
   </g>
   <g id="patch_3">
    <path d="M 57.6 307.584 
L 57.6 41.472 
" style="fill: none; stroke: #c8c8c8; stroke-width: 0.8; stroke-linejoin: miter; stroke-linecap: square"/>
   </g>
   <g id="patch_4">
    <path d="M 414.72 307.584 
L 414.72 41.472 
" style="fill: none; stroke: #c8c8c8; stroke-width: 0.8; stroke-linejoin: miter; stroke-linecap: square"/>
   </g>
   <g id="patch_5">
    <path d="M 57.6 307.584 
L 414.72 307.584 
" style="fill: none; stroke: #c8c8c8; stroke-width: 0.8; stroke-linejoin: miter; stroke-linecap: square"/>
   </g>
   <g id="patch_6">
    <path d="M 57.6 41.472 
L 414.72 41.472 
" style="fill: none; stroke: #c8c8c8; stroke-width: 0.8; stroke-linejoin: miter; stroke-linecap: square"/>
   </g>
   <g id="legend_1">
    <g id="patch_7">
     <path d="M 207.449687 78.82825 
L 407.72 78.82825 
Q 409.72 78.82825 409.72 76.82825 
L 409.72 48.472 
Q 409.72 46.472 407.72 46.472 
L 207.449687 46.472 
Q 205.449687 46.472 205.449687 48.472 
L 205.449687 76.82825 
Q 205.449687 78.82825 207.449687 78.82825 
z
" style="fill: #ffffff; opacity: 0.8; stroke: #cccccc; stroke-linejoin: miter"/>
    </g>
    <g id="line2d_29">
     <path d="M 209.449687 54.570437 
L 219.449687 54.570437 
L 229.449687 54.570437 
" style="fill: none; stroke: #008000; stroke-width: 1.5; stroke-linecap: square"/>
    </g>
    <g id="text_19">
     <!-- Celestial + Peppercorn: 53 stacks -->
     <g transform="translate(237.449687 58.070437) scale(0.1 -0.1)">
      <defs>
       <path id="DejaVuSans-2b" d="M 2944 4013 
L 2944 2272 
L 4684 2272 
L 4684 1741 
L 2944 1741 
L 2944 0 
L 2419 0 
L 2419 1741 
L 678 1741 
L 678 2272 
L 2419 2272 
L 2419 4013 
L 2944 4013 
z
" transform="scale(0.015625)"/>
       <path id="DejaVuSans-50" d="M 1259 4147 
L 1259 2394 
L 2053 2394 
Q 2494 2394 2734 2622 
Q 2975 2850 2975 3272 
Q 2975 3691 2734 3919 
Q 2494 4147 2053 4147 
L 1259 4147 
z
M 628 4666 
L 2053 4666 
Q 2838 4666 3239 4311 
Q 3641 3956 3641 3272 
Q 3641 2581 3239 2228 
Q 2838 1875 2053 1875 
L 1259 1875 
L 1259 0 
L 628 0 
L 628 4666 
z
" transform="scale(0.015625)"/>
       <path id="DejaVuSans-70" d="M 1159 525 
L 1159 -1331 
L 581 -1331 
L 581 3500 
L 1159 3500 
L 1159 2969 
Q 1341 3281 1617 3432 
Q 1894 3584 2278 3584 
Q 2916 3584 3314 3078 
Q 3713 2572 3713 1747 
Q 3713 922 3314 415 
Q 2916 -91 2278 -91 
Q 1894 -91 1617 61 
Q 1341 213 1159 525 
z
M 3116 1747 
Q 3116 2381 2855 2742 
Q 2594 3103 2138 3103 
Q 1681 3103 1420 2742 
Q 1159 2381 1159 1747 
Q 1159 1113 1420 752 
Q 1681 391 2138 391 
Q 2594 391 2855 752 
Q 3116 1113 3116 1747 
z
" transform="scale(0.015625)"/>
       <path id="DejaVuSans-3a" d="M 750 794 
L 1409 794 
L 1409 0 
L 750 0 
L 750 794 
z
M 750 3309 
L 1409 3309 
L 1409 2516 
L 750 2516 
L 750 3309 
z
" transform="scale(0.015625)"/>
      </defs>
      <use xlink:href="#DejaVuSans-43"/>
      <use xlink:href="#DejaVuSans-65" x="69.824219"/>
      <use xlink:href="#DejaVuSans-6c" x="131.347656"/>
      <use xlink:href="#DejaVuSans-65" x="159.130859"/>
      <use xlink:href="#DejaVuSans-73" x="220.654297"/>
      <use xlink:href="#DejaVuSans-74" x="272.753906"/>
      <use xlink:href="#DejaVuSans-69" x="311.962891"/>
      <use xlink:href="#DejaVuSans-61" x="339.746094"/>
      <use xlink:href="#DejaVuSans-6c" x="401.025391"/>
      <use xlink:href="#DejaVuSans-20" x="428.808594"/>
      <use xlink:href="#DejaVuSans-2b" x="460.595703"/>
      <use xlink:href="#DejaVuSans-20" x="544.384766"/>
      <use xlink:href="#DejaVuSans-50" x="576.171875"/>
      <use xlink:href="#DejaVuSans-65" x="632.849609"/>
      <use xlink:href="#DejaVuSans-70" x="694.373047"/>
      <use xlink:href="#DejaVuSans-70" x="757.849609"/>
      <use xlink:href="#DejaVuSans-65" x="821.326172"/>
      <use xlink:href="#DejaVuSans-72" x="882.849609"/>
      <use xlink:href="#DejaVuSans-63" x="921.712891"/>
      <use xlink:href="#DejaVuSans-6f" x="976.693359"/>
      <use xlink:href="#DejaVuSans-72" x="1037.875"/>
      <use xlink:href="#DejaVuSans-6e" x="1077.238281"/>
      <use xlink:href="#DejaVuSans-3a" x="1140.617188"/>
      <use xlink:href="#DejaVuSans-20" x="1174.308594"/>
      <use xlink:href="#DejaVuSans-35" x="1206.095703"/>
      <use xlink:href="#DejaVuSans-33" x="1269.71875"/>
      <use xlink:href="#DejaVuSans-20" x="1333.341797"/>
      <use xlink:href="#DejaVuSans-73" x="1365.128906"/>
      <use xlink:href="#DejaVuSans-74" x="1417.228516"/>
      <use xlink:href="#DejaVuSans-61" x="1456.4375"/>
      <use xlink:href="#DejaVuSans-63" x="1517.716797"/>
      <use xlink:href="#DejaVuSans-6b" x="1572.697266"/>
      <use xlink:href="#DejaVuSans-73" x="1630.607422"/>
     </g>
    </g>
    <g id="line2d_30">
     <path d="M 209.449687 69.248562 
L 219.449687 69.248562 
L 229.449687 69.248562 
" style="fill: none; stroke: #000000; stroke-width: 1.5; stroke-linecap: square"/>
    </g>
    <g id="text_20">
     <!-- Normal Raid Build: 45 stacks -->
     <g transform="translate(237.449687 72.748562) scale(0.1 -0.1)">
      <defs>
       <path id="DejaVuSans-4e" d="M 628 4666 
L 1478 4666 
L 3547 763 
L 3547 4666 
L 4159 4666 
L 4159 0 
L 3309 0 
L 1241 3903 
L 1241 0 
L 628 0 
L 628 4666 
z
" transform="scale(0.015625)"/>
       <path id="DejaVuSans-52" d="M 2841 2188 
Q 3044 2119 3236 1894 
Q 3428 1669 3622 1275 
L 4263 0 
L 3584 0 
L 2988 1197 
Q 2756 1666 2539 1819 
Q 2322 1972 1947 1972 
L 1259 1972 
L 1259 0 
L 628 0 
L 628 4666 
L 2053 4666 
Q 2853 4666 3247 4331 
Q 3641 3997 3641 3322 
Q 3641 2881 3436 2590 
Q 3231 2300 2841 2188 
z
M 1259 4147 
L 1259 2491 
L 2053 2491 
Q 2509 2491 2742 2702 
Q 2975 2913 2975 3322 
Q 2975 3731 2742 3939 
Q 2509 4147 2053 4147 
L 1259 4147 
z
" transform="scale(0.015625)"/>
       <path id="DejaVuSans-42" d="M 1259 2228 
L 1259 519 
L 2272 519 
Q 2781 519 3026 730 
Q 3272 941 3272 1375 
Q 3272 1813 3026 2020 
Q 2781 2228 2272 2228 
L 1259 2228 
z
M 1259 4147 
L 1259 2741 
L 2194 2741 
Q 2656 2741 2882 2914 
Q 3109 3088 3109 3444 
Q 3109 3797 2882 3972 
Q 2656 4147 2194 4147 
L 1259 4147 
z
M 628 4666 
L 2241 4666 
Q 2963 4666 3353 4366 
Q 3744 4066 3744 3513 
Q 3744 3084 3544 2831 
Q 3344 2578 2956 2516 
Q 3422 2416 3680 2098 
Q 3938 1781 3938 1306 
Q 3938 681 3513 340 
Q 3088 0 2303 0 
L 628 0 
L 628 4666 
z
" transform="scale(0.015625)"/>
      </defs>
      <use xlink:href="#DejaVuSans-4e"/>
      <use xlink:href="#DejaVuSans-6f" x="74.804688"/>
      <use xlink:href="#DejaVuSans-72" x="135.986328"/>
      <use xlink:href="#DejaVuSans-6d" x="175.349609"/>
      <use xlink:href="#DejaVuSans-61" x="272.761719"/>
      <use xlink:href="#DejaVuSans-6c" x="334.041016"/>
      <use xlink:href="#DejaVuSans-20" x="361.824219"/>
      <use xlink:href="#DejaVuSans-52" x="393.611328"/>
      <use xlink:href="#DejaVuSans-61" x="460.84375"/>
      <use xlink:href="#DejaVuSans-69" x="522.123047"/>
      <use xlink:href="#DejaVuSans-64" x="549.90625"/>
      <use xlink:href="#DejaVuSans-20" x="613.382812"/>
      <use xlink:href="#DejaVuSans-42" x="645.169922"/>
      <use xlink:href="#DejaVuSans-75" x="713.773438"/>
      <use xlink:href="#DejaVuSans-69" x="777.152344"/>
      <use xlink:href="#DejaVuSans-6c" x="804.935547"/>
      <use xlink:href="#DejaVuSans-64" x="832.71875"/>
      <use xlink:href="#DejaVuSans-3a" x="896.195312"/>
      <use xlink:href="#DejaVuSans-20" x="929.886719"/>
      <use xlink:href="#DejaVuSans-34" x="961.673828"/>
      <use xlink:href="#DejaVuSans-35" x="1025.296875"/>
      <use xlink:href="#DejaVuSans-20" x="1088.919922"/>
      <use xlink:href="#DejaVuSans-73" x="1120.707031"/>
      <use xlink:href="#DejaVuSans-74" x="1172.806641"/>
      <use xlink:href="#DejaVuSans-61" x="1212.015625"/>
      <use xlink:href="#DejaVuSans-63" x="1273.294922"/>
      <use xlink:href="#DejaVuSans-6b" x="1328.275391"/>
      <use xlink:href="#DejaVuSans-73" x="1386.185547"/>
     </g>
    </g>
   </g>
  </g>
 </g>
 <defs>
  <clipPath id="p1bb265493a">
   <rect x="57.6" y="41.472" width="357.12" height="266.112"/>
  </clipPath>
 </defs>
</svg>
