<?xml version="1.0" encoding="UTF-8"?>
<svg xmlns="http://www.w3.org/2000/svg" xmlns:xlink="http://www.w3.org/1999/xlink"
     width="1200" height="75" viewBox="0 0 1200 75">
<defs>
</defs>
<text x="60.0" y="43.5" font-size="16" fill="white" style="font-family:Segoe UI;text-anchor:middle">Cerus</text>
<rect x="230" y="25" width="50" height="25" fill="green" />
<text x="255.0" y="41.5" font-size="12" fill="white" style="font-family:Segoe UI;text-anchor:middle">Regret</text>
<rect x="330" y="25" width="50" height="25" fill="red" />
<text x="355.0" y="41.5" font-size="12" fill="white" style="font-family:Segoe UI;text-anchor:middle">Despair</text>
<rect x="430" y="25" width="100" height="25" fill="blue" />
<text x="480.0" y="41.5" font-size="12" fill="white" style="font-family:Segoe UI;text-anchor:middle">Envy</text>
<rect x="580" y="25" width="50" height="25" fill="black" />
<text x="605.0" y="41.5" font-size="12" fill="white" style="font-family:Segoe UI;text-anchor:middle">Malice</text>
<rect x="640" y="25" width="100" height="25" fill="purple" />
<text x="690.0" y="41.5" font-size="12" fill="white" style="font-family:Segoe UI;text-anchor:middle">Gluttony</text>
<rect x="800" y="25" width="50" height="25" fill="orange" />
<text x="825.0" y="41.5" font-size="12" fill="white" style="font-family:Segoe UI;text-anchor:middle">Rage</text>
<rect x="900" y="25" width="50" height="25" fill="green" />
<text x="925.0" y="41.5" font-size="12" fill="white" style="font-family:Segoe UI;text-anchor:middle">Regret</text>
<rect x="1000" y="25" width="50" height="25" fill="red" />
<text x="1025.0" y="41.5" font-size="12" fill="white" style="font-family:Segoe UI;text-anchor:middle">Despair</text>
<rect x="1100" y="25" width="100" height="25" fill="blue" />
<text x="1150.0" y="41.5" font-size="12" fill="white" style="font-family:Segoe UI;text-anchor:middle">Envy</text>
<text x="60.0" y="68.5" font-size="16" fill="white" style="font-family:Segoe UI;text-anchor:middle">Aspects</text>
<rect x="220" y="50" width="50" height="25" fill="black" />
<text x="245.0" y="66.5" font-size="12" fill="white" style="font-family:Segoe UI;text-anchor:middle">Malice</text>
<rect x="620" y="50" width="50" height="25" fill="red" />
<text x="645.0" y="66.5" font-size="12" fill="white" style="font-family:Segoe UI;text-anchor:middle">Despair</text>
<rect x="830" y="50" width="100" height="25" fill="purple" />
<text x="880.0" y="66.5" font-size="12" fill="white" style="font-family:Segoe UI;text-anchor:middle">Gluttony</text>
<path d="M0,25 L1200,25" stroke="white" stroke-width="2" />
<path d="M120,0 L120,75" stroke="white" stroke-width="2" />
<path d="M220,15.0 L220,25" stroke="white" stroke-width="1.5" />
<text x="220.0" y="12.5" font-size="12" fill="white" style="font-family:Segoe UI;text-anchor:middle">10</text>
<path d="M320,15.0 L320,25" stroke="white" stroke-width="1.5" />
<text x="320.0" y="12.5" font-size="12" fill="white" style="font-family:Segoe UI;text-anchor:middle">20</text>
<path d="M420,15.0 L420,25" stroke="white" stroke-width="1.5" />
<text x="420.0" y="12.5" font-size="12" fill="white" style="font-family:Segoe UI;text-anchor:middle">30</text>
<path d="M520,15.0 L520,25" stroke="white" stroke-width="1.5" />
<text x="520.0" y="12.5" font-size="12" fill="white" style="font-family:Segoe UI;text-anchor:middle">40</text>
<path d="M620,15.0 L620,25" stroke="white" stroke-width="1.5" />
<text x="620.0" y="12.5" font-size="12" fill="white" style="font-family:Segoe UI;text-anchor:middle">50</text>
<path d="M720,15.0 L720,25" stroke="white" stroke-width="1.5" />
<text x="720.0" y="12.5" font-size="12" fill="white" style="font-family:Segoe UI;text-anchor:middle">60</text>
<path d="M820,15.0 L820,25" stroke="white" stroke-width="1.5" />
<text x="820.0" y="12.5" font-size="12" fill="white" style="font-family:Segoe UI;text-anchor:middle">70</text>
<path d="M920,15.0 L920,25" stroke="white" stroke-width="1.5" />
<text x="920.0" y="12.5" font-size="12" fill="white" style="font-family:Segoe UI;text-anchor:middle">80</text>
<path d="M1020,15.0 L1020,25" stroke="white" stroke-width="1.5" />
<text x="1020.0" y="12.5" font-size="12" fill="white" style="font-family:Segoe UI;text-anchor:middle">90</text>
<path d="M1120,15.0 L1120,25" stroke="white" stroke-width="1.5" />
<text x="1120.0" y="12.5" font-size="12" fill="white" style="font-family:Segoe UI;text-anchor:middle">100</text>
<path d="M170,20.0 L170,25" stroke="white" stroke-width="0.5" />
<path d="M270,20.0 L270,25" stroke="white" stroke-width="0.5" />
<path d="M370,20.0 L370,25" stroke="white" stroke-width="0.5" />
<path d="M470,20.0 L470,25" stroke="white" stroke-width="0.5" />
<path d="M570,20.0 L570,25" stroke="white" stroke-width="0.5" />
<path d="M670,20.0 L670,25" stroke="white" stroke-width="0.5" />
<path d="M770,20.0 L770,25" stroke="white" stroke-width="0.5" />
<path d="M870,20.0 L870,25" stroke="white" stroke-width="0.5" />
<path d="M970,20.0 L970,25" stroke="white" stroke-width="0.5" />
<path d="M1070,20.0 L1070,25" stroke="white" stroke-width="0.5" />
<path d="M1170,20.0 L1170,25" stroke="white" stroke-width="0.5" />
<path d="M130,22.5 L130,25" stroke="white" stroke-width="0.3" />
<path d="M140,22.5 L140,25" stroke="white" stroke-width="0.3" />
<path d="M150,22.5 L150,25" stroke="white" stroke-width="0.3" />
<path d="M160,22.5 L160,25" stroke="white" stroke-width="0.3" />
<path d="M180,22.5 L180,25" stroke="white" stroke-width="0.3" />
<path d="M190,22.5 L190,25" stroke="white" stroke-width="0.3" />
<path d="M200,22.5 L200,25" stroke="white" stroke-width="0.3" />
<path d="M210,22.5 L210,25" stroke="white" stroke-width="0.3" />
<path d="M230,22.5 L230,25" stroke="white" stroke-width="0.3" />
<path d="M240,22.5 L240,25" stroke="white" stroke-width="0.3" />
<path d="M250,22.5 L250,25" stroke="white" stroke-width="0.3" />
<path d="M260,22.5 L260,25" stroke="white" stroke-width="0.3" />
<path d="M280,22.5 L280,25" stroke="white" stroke-width="0.3" />
<path d="M290,22.5 L290,25" stroke="white" stroke-width="0.3" />
<path d="M300,22.5 L300,25" stroke="white" stroke-width="0.3" />
<path d="M310,22.5 L310,25" stroke="white" stroke-width="0.3" />
<path d="M330,22.5 L330,25" stroke="white" stroke-width="0.3" />
<path d="M340,22.5 L340,25" stroke="white" stroke-width="0.3" />
<path d="M350,22.5 L350,25" stroke="white" stroke-width="0.3" />
<path d="M360,22.5 L360,25" stroke="white" stroke-width="0.3" />
<path d="M380,22.5 L380,25" stroke="white" stroke-width="0.3" />
<path d="M390,22.5 L390,25" stroke="white" stroke-width="0.3" />
<path d="M400,22.5 L400,25" stroke="white" stroke-width="0.3" />
<path d="M410,22.5 L410,25" stroke="white" stroke-width="0.3" />
<path d="M430,22.5 L430,25" stroke="white" stroke-width="0.3" />
<path d="M440,22.5 L440,25" stroke="white" stroke-width="0.3" />
<path d="M450,22.5 L450,25" stroke="white" stroke-width="0.3" />
<path d="M460,22.5 L460,25" stroke="white" stroke-width="0.3" />
<path d="M480,22.5 L480,25" stroke="white" stroke-width="0.3" />
<path d="M490,22.5 L490,25" stroke="white" stroke-width="0.3" />
<path d="M500,22.5 L500,25" stroke="white" stroke-width="0.3" />
<path d="M510,22.5 L510,25" stroke="white" stroke-width="0.3" />
<path d="M530,22.5 L530,25" stroke="white" stroke-width="0.3" />
<path d="M540,22.5 L540,25" stroke="white" stroke-width="0.3" />
<path d="M550,22.5 L550,25" stroke="white" stroke-width="0.3" />
<path d="M560,22.5 L560,25" stroke="white" stroke-width="0.3" />
<path d="M580,22.5 L580,25" stroke="white" stroke-width="0.3" />
<path d="M590,22.5 L590,25" stroke="white" stroke-width="0.3" />
<path d="M600,22.5 L600,25" stroke="white" stroke-width="0.3" />
<path d="M610,22.5 L610,25" stroke="white" stroke-width="0.3" />
<path d="M630,22.5 L630,25" stroke="white" stroke-width="0.3" />
<path d="M640,22.5 L640,25" stroke="white" stroke-width="0.3" />
<path d="M650,22.5 L650,25" stroke="white" stroke-width="0.3" />
<path d="M660,22.5 L660,25" stroke="white" stroke-width="0.3" />
<path d="M680,22.5 L680,25" stroke="white" stroke-width="0.3" />
<path d="M690,22.5 L690,25" stroke="white" stroke-width="0.3" />
<path d="M700,22.5 L700,25" stroke="white" stroke-width="0.3" />
<path d="M710,22.5 L710,25" stroke="white" stroke-width="0.3" />
<path d="M730,22.5 L730,25" stroke="white" stroke-width="0.3" />
<path d="M740,22.5 L740,25" stroke="white" stroke-width="0.3" />
<path d="M750,22.5 L750,25" stroke="white" stroke-width="0.3" />
<path d="M760,22.5 L760,25" stroke="white" stroke-width="0.3" />
<path d="M780,22.5 L780,25" stroke="white" stroke-width="0.3" />
<path d="M790,22.5 L790,25" stroke="white" stroke-width="0.3" />
<path d="M800,22.5 L800,25" stroke="white" stroke-width="0.3" />
<path d="M810,22.5 L810,25" stroke="white" stroke-width="0.3" />
<path d="M830,22.5 L830,25" stroke="white" stroke-width="0.3" />
<path d="M840,22.5 L840,25" stroke="white" stroke-width="0.3" />
<path d="M850,22.5 L850,25" stroke="white" stroke-width="0.3" />
<path d="M860,22.5 L860,25" stroke="white" stroke-width="0.3" />
<path d="M880,22.5 L880,25" stroke="white" stroke-width="0.3" />
<path d="M890,22.5 L890,25" stroke="white" stroke-width="0.3" />
<path d="M900,22.5 L900,25" stroke="white" stroke-width="0.3" />
<path d="M910,22.5 L910,25" stroke="white" stroke-width="0.3" />
<path d="M930,22.5 L930,25" stroke="white" stroke-width="0.3" />
<path d="M940,22.5 L940,25" stroke="white" stroke-width="0.3" />
<path d="M950,22.5 L950,25" stroke="white" stroke-width="0.3" />
<path d="M960,22.5 L960,25" stroke="white" stroke-width="0.3" />
<path d="M980,22.5 L980,25" stroke="white" stroke-width="0.3" />
<path d="M990,22.5 L990,25" stroke="white" stroke-width="0.3" />
<path d="M1000,22.5 L1000,25" stroke="white" stroke-width="0.3" />
<path d="M1010,22.5 L1010,25" stroke="white" stroke-width="0.3" />
<path d="M1030,22.5 L1030,25" stroke="white" stroke-width="0.3" />
<path d="M1040,22.5 L1040,25" stroke="white" stroke-width="0.3" />
<path d="M1050,22.5 L1050,25" stroke="white" stroke-width="0.3" />
<path d="M1060,22.5 L1060,25" stroke="white" stroke-width="0.3" />
<path d="M1080,22.5 L1080,25" stroke="white" stroke-width="0.3" />
<path d="M1090,22.5 L1090,25" stroke="white" stroke-width="0.3" />
<path d="M1100,22.5 L1100,25" stroke="white" stroke-width="0.3" />
<path d="M1110,22.5 L1110,25" stroke="white" stroke-width="0.3" />
<path d="M1130,22.5 L1130,25" stroke="white" stroke-width="0.3" />
<path d="M1140,22.5 L1140,25" stroke="white" stroke-width="0.3" />
<path d="M1150,22.5 L1150,25" stroke="white" stroke-width="0.3" />
<path d="M1160,22.5 L1160,25" stroke="white" stroke-width="0.3" />
<path d="M1180,22.5 L1180,25" stroke="white" stroke-width="0.3" />
<path d="M1190,22.5 L1190,25" stroke="white" stroke-width="0.3" />
</svg>