<?xml version="1.0" encoding="UTF-8"?>
<svg xmlns="http://www.w3.org/2000/svg" xmlns:xlink="http://www.w3.org/1999/xlink"
     width="2420" height="75" viewBox="0 0 2420 75">
<defs>
</defs>
<text x="60.0" y="43.5" font-size="16" fill="white" style="font-family:Segoe UI;text-anchor:middle">Cerus</text>
<rect x="160" y="25" width="50" height="25" fill="green" />
<text x="185.0" y="41.5" font-size="12" fill="white" style="font-family:Segoe UI;text-anchor:middle">Regret</text>
<rect x="280" y="25" width="100" height="25" fill="blue" />
<text x="330.0" y="41.5" font-size="12" fill="white" style="font-family:Segoe UI;text-anchor:middle">Envy</text>
<rect x="420" y="25" width="100" height="25" fill="purple" />
<text x="470.0" y="41.5" font-size="12" fill="white" style="font-family:Segoe UI;text-anchor:middle">Gluttony</text>
<rect x="580" y="25" width="50" height="25" fill="orange" />
<text x="605.0" y="41.5" font-size="12" fill="white" style="font-family:Segoe UI;text-anchor:middle">Rage</text>
<rect x="690" y="25" width="50" height="25" fill="black" />
<text x="715.0" y="41.5" font-size="12" fill="white" style="font-family:Segoe UI;text-anchor:middle">Malice</text>
<rect x="740" y="25" width="50" height="25" fill="red" />
<text x="765.0" y="41.5" font-size="12" fill="white" style="font-family:Segoe UI;text-anchor:middle">Despair</text>
<rect x="830" y="25" width="50" height="25" fill="green" />
<text x="855.0" y="41.5" font-size="12" fill="white" style="font-family:Segoe UI;text-anchor:middle">Regret</text>
<rect x="940" y="25" width="100" height="25" fill="blue" />
<text x="990.0" y="41.5" font-size="12" fill="white" style="font-family:Segoe UI;text-anchor:middle">Envy</text>
<rect x="1090" y="25" width="100" height="25" fill="purple" />
<text x="1140.0" y="41.5" font-size="12" fill="white" style="font-family:Segoe UI;text-anchor:middle">Gluttony</text>
<rect x="1250" y="25" width="50" height="25" fill="orange" />
<text x="1275.0" y="41.5" font-size="12" fill="white" style="font-family:Segoe UI;text-anchor:middle">Rage</text>
<rect x="1350" y="25" width="50" height="25" fill="black" />
<text x="1375.0" y="41.5" font-size="12" fill="white" style="font-family:Segoe UI;text-anchor:middle">Malice</text>
<rect x="1410" y="25" width="50" height="25" fill="red" />
<text x="1435.0" y="41.5" font-size="12" fill="white" style="font-family:Segoe UI;text-anchor:middle">Despair</text>
<rect x="1500" y="25" width="50" height="25" fill="green" />
<text x="1525.0" y="41.5" font-size="12" fill="white" style="font-family:Segoe UI;text-anchor:middle">Regret</text>
<rect x="1610" y="25" width="100" height="25" fill="blue" />
<text x="1660.0" y="41.5" font-size="12" fill="white" style="font-family:Segoe UI;text-anchor:middle">Envy</text>
<rect x="1760" y="25" width="100" height="25" fill="purple" />
<text x="1810.0" y="41.5" font-size="12" fill="white" style="font-family:Segoe UI;text-anchor:middle">Gluttony</text>
<rect x="1920" y="25" width="50" height="25" fill="orange" />
<text x="1945.0" y="41.5" font-size="12" fill="white" style="font-family:Segoe UI;text-anchor:middle">Rage</text>
<rect x="2020" y="25" width="50" height="25" fill="black" />
<text x="2045.0" y="41.5" font-size="12" fill="white" style="font-family:Segoe UI;text-anchor:middle">Malice</text>
<rect x="2080" y="25" width="50" height="25" fill="red" />
<text x="2105.0" y="41.5" font-size="12" fill="white" style="font-family:Segoe UI;text-anchor:middle">Despair</text>
<rect x="2170" y="25" width="50" height="25" fill="green" />
<text x="2195.0" y="41.5" font-size="12" fill="white" style="font-family:Segoe UI;text-anchor:middle">Regret</text>
<rect x="2280" y="25" width="100" height="25" fill="purple" />
<text x="2330.0" y="41.5" font-size="12" fill="white" style="font-family:Segoe UI;text-anchor:middle">Gluttony</text>
<text x="60.0" y="68.5" font-size="16" fill="white" style="font-family:Segoe UI;text-anchor:middle">Aspects</text>
<rect x="220" y="50" width="50" height="25" fill="orange" />
<text x="245.0" y="66.5" font-size="12" fill="white" style="font-family:Segoe UI;text-anchor:middle">Rage</text>
<rect x="370" y="50" width="100" height="25" fill="purple" />
<text x="420.0" y="66.5" font-size="12" fill="white" style="font-family:Segoe UI;text-anchor:middle">Gluttony</text>
<rect x="520" y="50" width="50" height="25" fill="black" />
<text x="545.0" y="66.5" font-size="12" fill="white" style="font-family:Segoe UI;text-anchor:middle">Malice</text>
<rect x="670" y="50" width="50" height="25" fill="red" />
<text x="695.0" y="66.5" font-size="12" fill="white" style="font-family:Segoe UI;text-anchor:middle">Despair</text>
<rect x="830" y="50" width="100" height="25" fill="blue" />
<text x="880.0" y="66.5" font-size="12" fill="white" style="font-family:Segoe UI;text-anchor:middle">Envy</text>
<rect x="970" y="50" width="50" height="25" fill="green" />
<text x="995.0" y="66.5" font-size="12" fill="white" style="font-family:Segoe UI;text-anchor:middle">Regret</text>
<rect x="1120" y="50" width="50" height="25" fill="orange" />
<text x="1145.0" y="66.5" font-size="12" fill="white" style="font-family:Segoe UI;text-anchor:middle">Rage</text>
<rect x="1270" y="50" width="100" height="25" fill="purple" />
<text x="1320.0" y="66.5" font-size="12" fill="white" style="font-family:Segoe UI;text-anchor:middle">Gluttony</text>
<rect x="1420" y="50" width="50" height="25" fill="black" />
<text x="1445.0" y="66.5" font-size="12" fill="white" style="font-family:Segoe UI;text-anchor:middle">Malice</text>
<rect x="1570" y="50" width="50" height="25" fill="red" />
<text x="1595.0" y="66.5" font-size="12" fill="white" style="font-family:Segoe UI;text-anchor:middle">Despair</text>
<rect x="1730" y="50" width="100" height="25" fill="blue" />
<text x="1780.0" y="66.5" font-size="12" fill="white" style="font-family:Segoe UI;text-anchor:middle">Envy</text>
<rect x="1870" y="50" width="50" height="25" fill="green" />
<text x="1895.0" y="66.5" font-size="12" fill="white" style="font-family:Segoe UI;text-anchor:middle">Regret</text>
<rect x="2020" y="50" width="50" height="25" fill="orange" />
<text x="2045.0" y="66.5" font-size="12" fill="white" style="font-family:Segoe UI;text-anchor:middle">Rage</text>
<rect x="2170" y="50" width="100" height="25" fill="purple" />
<text x="2220.0" y="66.5" font-size="12" fill="white" style="font-family:Segoe UI;text-anchor:middle">Gluttony</text>
<rect x="2320" y="50" width="50" height="25" fill="black" />
<text x="2345.0" y="66.5" font-size="12" fill="white" style="font-family:Segoe UI;text-anchor:middle">Malice</text>
<path d="M0,25 L2420,25" stroke="white" stroke-width="2" />
<path d="M120,0 L120,75" stroke="white" stroke-width="2" />
<path d="M220,15.0 L220,25" stroke="white" stroke-width="1.5" />
<text x="220.0" y="12.5" font-size="12" fill="white" style="font-family:Segoe UI;text-anchor:middle">10</text>
<path d="M320,15.0 L320,25" stroke="white" stroke-width="1.5" />
<text x="320.0" y="12.5" font-size="12" fill="white" style="font-family:Segoe UI;text-anchor:middle">20</text>
<path d="M420,15.0 L420,25" stroke="white" stroke-width="1.5" />
<text x="420.0" y="12.5" font-size="12" fill="white" style="font-family:Segoe UI;text-anchor:middle">30</text>
<path d="M520,15.0 L520,25" stroke="white" stroke-width="1.5" />
<text x="520.0" y="12.5" font-size="12" fill="white" style="font-family:Segoe UI;text-anchor:middle">40</text>
<path d="M620,15.0 L620,25" stroke="white" stroke-width="1.5" />
<text x="620.0" y="12.5" font-size="12" fill="white" style="font-family:Segoe UI;text-anchor:middle">50</text>
<path d="M720,15.0 L720,25" stroke="white" stroke-width="1.5" />
<text x="720.0" y="12.5" font-size="12" fill="white" style="font-family:Segoe UI;text-anchor:middle">60</text>
<path d="M820,15.0 L820,25" stroke="white" stroke-width="1.5" />
<text x="820.0" y="12.5" font-size="12" fill="white" style="font-family:Segoe UI;text-anchor:middle">70</text>
<path d="M920,15.0 L920,25" stroke="white" stroke-width="1.5" />
<text x="920.0" y="12.5" font-size="12" fill="white" style="font-family:Segoe UI;text-anchor:middle">80</text>
<path d="M1020,15.0 L1020,25" stroke="white" stroke-width="1.5" />
<text x="1020.0" y="12.5" font-size="12" fill="white" style="font-family:Segoe UI;text-anchor:middle">90</text>
<path d="M1120,15.0 L1120,25" stroke="white" stroke-width="1.5" />
<text x="1120.0" y="12.5" font-size="12" fill="white" style="font-family:Segoe UI;text-anchor:middle">100</text>
<path d="M1220,15.0 L1220,25" stroke="white" stroke-width="1.5" />
<text x="1220.0" y="12.5" font-size="12" fill="white" style="font-family:Segoe UI;text-anchor:middle">110</text>
<path d="M1320,15.0 L1320,25" stroke="white" stroke-width="1.5" />
<text x="1320.0" y="12.5" font-size="12" fill="white" style="font-family:Segoe UI;text-anchor:middle">120</text>
<path d="M1420,15.0 L1420,25" stroke="white" stroke-width="1.5" />
<text x="1420.0" y="12.5" font-size="12" fill="white" style="font-family:Segoe UI;text-anchor:middle">130</text>
<path d="M1520,15.0 L1520,25" stroke="white" stroke-width="1.5" />
<text x="1520.0" y="12.5" font-size="12" fill="white" style="font-family:Segoe UI;text-anchor:middle">140</text>
<path d="M1620,15.0 L1620,25" stroke="white" stroke-width="1.5" />
<text x="1620.0" y="12.5" font-size="12" fill="white" style="font-family:Segoe UI;text-anchor:middle">150</text>
<path d="M1720,15.0 L1720,25" stroke="white" stroke-width="1.5" />
<text x="1720.0" y="12.5" font-size="12" fill="white" style="font-family:Segoe UI;text-anchor:middle">160</text>
<path d="M1820,15.0 L1820,25" stroke="white" stroke-width="1.5" />
<text x="1820.0" y="12.5" font-size="12" fill="white" style="font-family:Segoe UI;text-anchor:middle">170</text>
<path d="M1920,15.0 L1920,25" stroke="white" stroke-width="1.5" />
<text x="1920.0" y="12.5" font-size="12" fill="white" style="font-family:Segoe UI;text-anchor:middle">180</text>
<path d="M2020,15.0 L2020,25" stroke="white" stroke-width="1.5" />
<text x="2020.0" y="12.5" font-size="12" fill="white" style="font-family:Segoe UI;text-anchor:middle">190</text>
<path d="M2120,15.0 L2120,25" stroke="white" stroke-width="1.5" />
<text x="2120.0" y="12.5" font-size="12" fill="white" style="font-family:Segoe UI;text-anchor:middle">200</text>
<path d="M2220,15.0 L2220,25" stroke="white" stroke-width="1.5" />
<text x="2220.0" y="12.5" font-size="12" fill="white" style="font-family:Segoe UI;text-anchor:middle">210</text>
<path d="M2320,15.0 L2320,25" stroke="white" stroke-width="1.5" />
<text x="2320.0" y="12.5" font-size="12" fill="white" style="font-family:Segoe UI;text-anchor:middle">220</text>
<path d="M170,20.0 L170,25" stroke="white" stroke-width="0.5" />
<path d="M270,20.0 L270,25" stroke="white" stroke-width="0.5" />
<path d="M370,20.0 L370,25" stroke="white" stroke-width="0.5" />
<path d="M470,20.0 L470,25" stroke="white" stroke-width="0.5" />
<path d="M570,20.0 L570,25" stroke="white" stroke-width="0.5" />
<path d="M670,20.0 L670,25" stroke="white" stroke-width="0.5" />
<path d="M770,20.0 L770,25" stroke="white" stroke-width="0.5" />
<path d="M870,20.0 L870,25" stroke="white" stroke-width="0.5" />
<path d="M970,20.0 L970,25" stroke="white" stroke-width="0.5" />
<path d="M1070,20.0 L1070,25" stroke="white" stroke-width="0.5" />
<path d="M1170,20.0 L1170,25" stroke="white" stroke-width="0.5" />
<path d="M1270,20.0 L1270,25" stroke="white" stroke-width="0.5" />
<path d="M1370,20.0 L1370,25" stroke="white" stroke-width="0.5" />
<path d="M1470,20.0 L1470,25" stroke="white" stroke-width="0.5" />
<path d="M1570,20.0 L1570,25" stroke="white" stroke-width="0.5" />
<path d="M1670,20.0 L1670,25" stroke="white" stroke-width="0.5" />
<path d="M1770,20.0 L1770,25" stroke="white" stroke-width="0.5" />
<path d="M1870,20.0 L1870,25" stroke="white" stroke-width="0.5" />
<path d="M1970,20.0 L1970,25" stroke="white" stroke-width="0.5" />
<path d="M2070,20.0 L2070,25" stroke="white" stroke-width="0.5" />
<path d="M2170,20.0 L2170,25" stroke="white" stroke-width="0.5" />
<path d="M2270,20.0 L2270,25" stroke="white" stroke-width="0.5" />
<path d="M2370,20.0 L2370,25" stroke="white" stroke-width="0.5" />
<path d="M130,22.5 L130,25" stroke="white" stroke-width="0.3" />
<path d="M140,22.5 L140,25" stroke="white" stroke-width="0.3" />
<path d="M150,22.5 L150,25" stroke="white" stroke-width="0.3" />
<path d="M160,22.5 L160,25" stroke="white" stroke-width="0.3" />
<path d="M180,22.5 L180,25" stroke="white" stroke-width="0.3" />
<path d="M190,22.5 L190,25" stroke="white" stroke-width="0.3" />
<path d="M200,22.5 L200,25" stroke="white" stroke-width="0.3" />
<path d="M210,22.5 L210,25" stroke="white" stroke-width="0.3" />
<path d="M230,22.5 L230,25" stroke="white" stroke-width="0.3" />
<path d="M240,22.5 L240,25" stroke="white" stroke-width="0.3" />
<path d="M250,22.5 L250,25" stroke="white" stroke-width="0.3" />
<path d="M260,22.5 L260,25" stroke="white" stroke-width="0.3" />
<path d="M280,22.5 L280,25" stroke="white" stroke-width="0.3" />
<path d="M290,22.5 L290,25" stroke="white" stroke-width="0.3" />
<path d="M300,22.5 L300,25" stroke="white" stroke-width="0.3" />
<path d="M310,22.5 L310,25" stroke="white" stroke-width="0.3" />
<path d="M330,22.5 L330,25" stroke="white" stroke-width="0.3" />
<path d="M340,22.5 L340,25" stroke="white" stroke-width="0.3" />
<path d="M350,22.5 L350,25" stroke="white" stroke-width="0.3" />
<path d="M360,22.5 L360,25" stroke="white" stroke-width="0.3" />
<path d="M380,22.5 L380,25" stroke="white" stroke-width="0.3" />
<path d="M390,22.5 L390,25" stroke="white" stroke-width="0.3" />
<path d="M400,22.5 L400,25" stroke="white" stroke-width="0.3" />
<path d="M410,22.5 L410,25" stroke="white" stroke-width="0.3" />
<path d="M430,22.5 L430,25" stroke="white" stroke-width="0.3" />
<path d="M440,22.5 L440,25" stroke="white" stroke-width="0.3" />
<path d="M450,22.5 L450,25" stroke="white" stroke-width="0.3" />
<path d="M460,22.5 L460,25" stroke="white" stroke-width="0.3" />
<path d="M480,22.5 L480,25" stroke="white" stroke-width="0.3" />
<path d="M490,22.5 L490,25" stroke="white" stroke-width="0.3" />
<path d="M500,22.5 L500,25" stroke="white" stroke-width="0.3" />
<path d="M510,22.5 L510,25" stroke="white" stroke-width="0.3" />
<path d="M530,22.5 L530,25" stroke="white" stroke-width="0.3" />
<path d="M540,22.5 L540,25" stroke="white" stroke-width="0.3" />
<path d="M550,22.5 L550,25" stroke="white" stroke-width="0.3" />
<path d="M560,22.5 L560,25" stroke="white" stroke-width="0.3" />
<path d="M580,22.5 L580,25" stroke="white" stroke-width="0.3" />
<path d="M590,22.5 L590,25" stroke="white" stroke-width="0.3" />
<path d="M600,22.5 L600,25" stroke="white" stroke-width="0.3" />
<path d="M610,22.5 L610,25" stroke="white" stroke-width="0.3" />
<path d="M630,22.5 L630,25" stroke="white" stroke-width="0.3" />
<path d="M640,22.5 L640,25" stroke="white" stroke-width="0.3" />
<path d="M650,22.5 L650,25" stroke="white" stroke-width="0.3" />
<path d="M660,22.5 L660,25" stroke="white" stroke-width="0.3" />
<path d="M680,22.5 L680,25" stroke="white" stroke-width="0.3" />
<path d="M690,22.5 L690,25" stroke="white" stroke-width="0.3" />
<path d="M700,22.5 L700,25" stroke="white" stroke-width="0.3" />
<path d="M710,22.5 L710,25" stroke="white" stroke-width="0.3" />
<path d="M730,22.5 L730,25" stroke="white" stroke-width="0.3" />
<path d="M740,22.5 L740,25" stroke="white" stroke-width="0.3" />
<path d="M750,22.5 L750,25" stroke="white" stroke-width="0.3" />
<path d="M760,22.5 L760,25" stroke="white" stroke-width="0.3" />
<path d="M780,22.5 L780,25" stroke="white" stroke-width="0.3" />
<path d="M790,22.5 L790,25" stroke="white" stroke-width="0.3" />
<path d="M800,22.5 L800,25" stroke="white" stroke-width="0.3" />
<path d="M810,22.5 L810,25" stroke="white" stroke-width="0.3" />
<path d="M830,22.5 L830,25" stroke="white" stroke-width="0.3" />
<path d="M840,22.5 L840,25" stroke="white" stroke-width="0.3" />
<path d="M850,22.5 L850,25" stroke="white" stroke-width="0.3" />
<path d="M860,22.5 L860,25" stroke="white" stroke-width="0.3" />
<path d="M880,22.5 L880,25" stroke="white" stroke-width="0.3" />
<path d="M890,22.5 L890,25" stroke="white" stroke-width="0.3" />
<path d="M900,22.5 L900,25" stroke="white" stroke-width="0.3" />
<path d="M910,22.5 L910,25" stroke="white" stroke-width="0.3" />
<path d="M930,22.5 L930,25" stroke="white" stroke-width="0.3" />
<path d="M940,22.5 L940,25" stroke="white" stroke-width="0.3" />
<path d="M950,22.5 L950,25" stroke="white" stroke-width="0.3" />
<path d="M960,22.5 L960,25" stroke="white" stroke-width="0.3" />
<path d="M980,22.5 L980,25" stroke="white" stroke-width="0.3" />
<path d="M990,22.5 L990,25" stroke="white" stroke-width="0.3" />
<path d="M1000,22.5 L1000,25" stroke="white" stroke-width="0.3" />
<path d="M1010,22.5 L1010,25" stroke="white" stroke-width="0.3" />
<path d="M1030,22.5 L1030,25" stroke="white" stroke-width="0.3" />
<path d="M1040,22.5 L1040,25" stroke="white" stroke-width="0.3" />
<path d="M1050,22.5 L1050,25" stroke="white" stroke-width="0.3" />
<path d="M1060,22.5 L1060,25" stroke="white" stroke-width="0.3" />
<path d="M1080,22.5 L1080,25" stroke="white" stroke-width="0.3" />
<path d="M1090,22.5 L1090,25" stroke="white" stroke-width="0.3" />
<path d="M1100,22.5 L1100,25" stroke="white" stroke-width="0.3" />
<path d="M1110,22.5 L1110,25" stroke="white" stroke-width="0.3" />
<path d="M1130,22.5 L1130,25" stroke="white" stroke-width="0.3" />
<path d="M1140,22.5 L1140,25" stroke="white" stroke-width="0.3" />
<path d="M1150,22.5 L1150,25" stroke="white" stroke-width="0.3" />
<path d="M1160,22.5 L1160,25" stroke="white" stroke-width="0.3" />
<path d="M1180,22.5 L1180,25" stroke="white" stroke-width="0.3" />
<path d="M1190,22.5 L1190,25" stroke="white" stroke-width="0.3" />
<path d="M1200,22.5 L1200,25" stroke="white" stroke-width="0.3" />
<path d="M1210,22.5 L1210,25" stroke="white" stroke-width="0.3" />
<path d="M1230,22.5 L1230,25" stroke="white" stroke-width="0.3" />
<path d="M1240,22.5 L1240,25" stroke="white" stroke-width="0.3" />
<path d="M1250,22.5 L1250,25" stroke="white" stroke-width="0.3" />
<path d="M1260,22.5 L1260,25" stroke="white" stroke-width="0.3" />
<path d="M1280,22.5 L1280,25" stroke="white" stroke-width="0.3" />
<path d="M1290,22.5 L1290,25" stroke="white" stroke-width="0.3" />
<path d="M1300,22.5 L1300,25" stroke="white" stroke-width="0.3" />
<path d="M1310,22.5 L1310,25" stroke="white" stroke-width="0.3" />
<path d="M1330,22.5 L1330,25" stroke="white" stroke-width="0.3" />
<path d="M1340,22.5 L1340,25" stroke="white" stroke-width="0.3" />
<path d="M1350,22.5 L1350,25" stroke="white" stroke-width="0.3" />
<path d="M1360,22.5 L1360,25" stroke="white" stroke-width="0.3" />
<path d="M1380,22.5 L1380,25" stroke="white" stroke-width="0.3" />
<path d="M1390,22.5 L1390,25" stroke="white" stroke-width="0.3" />
<path d="M1400,22.5 L1400,25" stroke="white" stroke-width="0.3" />
<path d="M1410,22.5 L1410,25" stroke="white" stroke-width="0.3" />
<path d="M1430,22.5 L1430,25" stroke="white" stroke-width="0.3" />
<path d="M1440,22.5 L1440,25" stroke="white" stroke-width="0.3" />
<path d="M1450,22.5 L1450,25" stroke="white" stroke-width="0.3" />
<path d="M1460,22.5 L1460,25" stroke="white" stroke-width="0.3" />
<path d="M1480,22.5 L1480,25" stroke="white" stroke-width="0.3" />
<path d="M1490,22.5 L1490,25" stroke="white" stroke-width="0.3" />
<path d="M1500,22.5 L1500,25" stroke="white" stroke-width="0.3" />
<path d="M1510,22.5 L1510,25" stroke="white" stroke-width="0.3" />
<path d="M1530,22.5 L1530,25" stroke="white" stroke-width="0.3" />
<path d="M1540,22.5 L1540,25" stroke="white" stroke-width="0.3" />
<path d="M1550,22.5 L1550,25" stroke="white" stroke-width="0.3" />
<path d="M1560,22.5 L1560,25" stroke="white" stroke-width="0.3" />
<path d="M1580,22.5 L1580,25" stroke="white" stroke-width="0.3" />
<path d="M1590,22.5 L1590,25" stroke="white" stroke-width="0.3" />
<path d="M1600,22.5 L1600,25" stroke="white" stroke-width="0.3" />
<path d="M1610,22.5 L1610,25" stroke="white" stroke-width="0.3" />
<path d="M1630,22.5 L1630,25" stroke="white" stroke-width="0.3" />
<path d="M1640,22.5 L1640,25" stroke="white" stroke-width="0.3" />
<path d="M1650,22.5 L1650,25" stroke="white" stroke-width="0.3" />
<path d="M1660,22.5 L1660,25" stroke="white" stroke-width="0.3" />
<path d="M1680,22.5 L1680,25" stroke="white" stroke-width="0.3" />
<path d="M1690,22.5 L1690,25" stroke="white" stroke-width="0.3" />
<path d="M1700,22.5 L1700,25" stroke="white" stroke-width="0.3" />
<path d="M1710,22.5 L1710,25" stroke="white" stroke-width="0.3" />
<path d="M1730,22.5 L1730,25" stroke="white" stroke-width="0.3" />
<path d="M1740,22.5 L1740,25" stroke="white" stroke-width="0.3" />
<path d="M1750,22.5 L1750,25" stroke="white" stroke-width="0.3" />
<path d="M1760,22.5 L1760,25" stroke="white" stroke-width="0.3" />
<path d="M1780,22.5 L1780,25" stroke="white" stroke-width="0.3" />
<path d="M1790,22.5 L1790,25" stroke="white" stroke-width="0.3" />
<path d="M1800,22.5 L1800,25" stroke="white" stroke-width="0.3" />
<path d="M1810,22.5 L1810,25" stroke="white" stroke-width="0.3" />
<path d="M1830,22.5 L1830,25" stroke="white" stroke-width="0.3" />
<path d="M1840,22.5 L1840,25" stroke="white" stroke-width="0.3" />
<path d="M1850,22.5 L1850,25" stroke="white" stroke-width="0.3" />
<path d="M1860,22.5 L1860,25" stroke="white" stroke-width="0.3" />
<path d="M1880,22.5 L1880,25" stroke="white" stroke-width="0.3" />
<path d="M1890,22.5 L1890,25" stroke="white" stroke-width="0.3" />
<path d="M1900,22.5 L1900,25" stroke="white" stroke-width="0.3" />
<path d="M1910,22.5 L1910,25" stroke="white" stroke-width="0.3" />
<path d="M1930,22.5 L1930,25" stroke="white" stroke-width="0.3" />
<path d="M1940,22.5 L1940,25" stroke="white" stroke-width="0.3" />
<path d="M1950,22.5 L1950,25" stroke="white" stroke-width="0.3" />
<path d="M1960,22.5 L1960,25" stroke="white" stroke-width="0.3" />
<path d="M1980,22.5 L1980,25" stroke="white" stroke-width="0.3" />
<path d="M1990,22.5 L1990,25" stroke="white" stroke-width="0.3" />
<path d="M2000,22.5 L2000,25" stroke="white" stroke-width="0.3" />
<path d="M2010,22.5 L2010,25" stroke="white" stroke-width="0.3" />
<path d="M2030,22.5 L2030,25" stroke="white" stroke-width="0.3" />
<path d="M2040,22.5 L2040,25" stroke="white" stroke-width="0.3" />
<path d="M2050,22.5 L2050,25" stroke="white" stroke-width="0.3" />
<path d="M2060,22.5 L2060,25" stroke="white" stroke-width="0.3" />
<path d="M2080,22.5 L2080,25" stroke="white" stroke-width="0.3" />
<path d="M2090,22.5 L2090,25" stroke="white" stroke-width="0.3" />
<path d="M2100,22.5 L2100,25" stroke="white" stroke-width="0.3" />
<path d="M2110,22.5 L2110,25" stroke="white" stroke-width="0.3" />
<path d="M2130,22.5 L2130,25" stroke="white" stroke-width="0.3" />
<path d="M2140,22.5 L2140,25" stroke="white" stroke-width="0.3" />
<path d="M2150,22.5 L2150,25" stroke="white" stroke-width="0.3" />
<path d="M2160,22.5 L2160,25" stroke="white" stroke-width="0.3" />
<path d="M2180,22.5 L2180,25" stroke="white" stroke-width="0.3" />
<path d="M2190,22.5 L2190,25" stroke="white" stroke-width="0.3" />
<path d="M2200,22.5 L2200,25" stroke="white" stroke-width="0.3" />
<path d="M2210,22.5 L2210,25" stroke="white" stroke-width="0.3" />
<path d="M2230,22.5 L2230,25" stroke="white" stroke-width="0.3" />
<path d="M2240,22.5 L2240,25" stroke="white" stroke-width="0.3" />
<path d="M2250,22.5 L2250,25" stroke="white" stroke-width="0.3" />
<path d="M2260,22.5 L2260,25" stroke="white" stroke-width="0.3" />
<path d="M2280,22.5 L2280,25" stroke="white" stroke-width="0.3" />
<path d="M2290,22.5 L2290,25" stroke="white" stroke-width="0.3" />
<path d="M2300,22.5 L2300,25" stroke="white" stroke-width="0.3" />
<path d="M2310,22.5 L2310,25" stroke="white" stroke-width="0.3" />
<path d="M2330,22.5 L2330,25" stroke="white" stroke-width="0.3" />
<path d="M2340,22.5 L2340,25" stroke="white" stroke-width="0.3" />
<path d="M2350,22.5 L2350,25" stroke="white" stroke-width="0.3" />
<path d="M2360,22.5 L2360,25" stroke="white" stroke-width="0.3" />
<path d="M2380,22.5 L2380,25" stroke="white" stroke-width="0.3" />
<path d="M2390,22.5 L2390,25" stroke="white" stroke-width="0.3" />
<path d="M2400,22.5 L2400,25" stroke="white" stroke-width="0.3" />
<path d="M2410,22.5 L2410,25" stroke="white" stroke-width="0.3" />
</svg>