<?xml version="1.0" encoding="UTF-8"?>
<svg xmlns="http://www.w3.org/2000/svg" xmlns:xlink="http://www.w3.org/1999/xlink"
     width="230" height="100" viewBox="0 0 230 100">
<defs>
</defs>
<text x="60.0" y="43.5" font-size="16" fill="white" style="font-family:Segoe UI;text-anchor:middle">Enraged Smash</text>
<circle cx="120" cy="37.5" r="6.25" fill="red" />
<path d="M120,25 L120,50" stroke="red" />
<circle cx="160" cy="37.5" r="6.25" fill="red" />
<path d="M160,25 L160,50" stroke="red" />
<circle cx="200" cy="37.5" r="6.25" fill="red" />
<path d="M200,25 L200,50" stroke="red" />
<circle cx="240" cy="37.5" r="6.25" fill="red" />
<path d="M240,25 L240,50" stroke="red" />
<circle cx="280" cy="37.5" r="6.25" fill="red" />
<path d="M280,25 L280,50" stroke="red" />
<circle cx="320" cy="37.5" r="6.25" fill="red" />
<path d="M320,25 L320,50" stroke="red" />
<circle cx="360" cy="37.5" r="6.25" fill="red" />
<path d="M360,25 L360,50" stroke="red" />
<circle cx="400" cy="37.5" r="6.25" fill="red" />
<path d="M400,25 L400,50" stroke="red" />
<circle cx="440" cy="37.5" r="6.25" fill="red" />
<path d="M440,25 L440,50" stroke="red" />
<circle cx="480" cy="37.5" r="6.25" fill="red" />
<path d="M480,25 L480,50" stroke="red" />
<circle cx="520" cy="37.5" r="6.25" fill="red" />
<path d="M520,25 L520,50" stroke="red" />
<circle cx="560" cy="37.5" r="6.25" fill="red" />
<path d="M560,25 L560,50" stroke="red" />
<circle cx="600" cy="37.5" r="6.25" fill="red" />
<path d="M600,25 L600,50" stroke="red" />
<circle cx="640" cy="37.5" r="6.25" fill="red" />
<path d="M640,25 L640,50" stroke="red" />
<circle cx="680" cy="37.5" r="6.25" fill="red" />
<path d="M680,25 L680,50" stroke="red" />
<circle cx="720" cy="37.5" r="6.25" fill="red" />
<path d="M720,25 L720,50" stroke="red" />
<circle cx="760" cy="37.5" r="6.25" fill="red" />
<path d="M760,25 L760,50" stroke="red" />
<circle cx="800" cy="37.5" r="6.25" fill="red" />
<path d="M800,25 L800,50" stroke="red" />
<text x="60.0" y="68.5" font-size="16" fill="white" style="font-family:Segoe UI;text-anchor:middle">Aspects</text>
<rect x="170" y="50" width="50" height="25" fill="red" />
<text x="195.0" y="66.5" font-size="12" fill="white" style="font-family:Segoe UI;text-anchor:middle">Despair</text>
<text x="60.0" y="93.5" font-size="16" fill="white" style="font-family:Segoe UI;text-anchor:middle"></text>
<path d="M0,25 L230,25" stroke="white" stroke-width="2" />
<path d="M120,0 L120,100" stroke="white" stroke-width="2" />
<path d="M130,22.5 L130,white" stroke="white" stroke-width="0.3" />
<path d="M140,22.5 L140,white" stroke="white" stroke-width="0.3" />
<path d="M150,22.5 L150,white" stroke="white" stroke-width="0.3" />
<path d="M160,22.5 L160,white" stroke="white" stroke-width="0.3" />
<path d="M170,20.0 L170,25" stroke="white" stroke-width="0.5" />
<path d="M180,22.5 L180,white" stroke="white" stroke-width="0.3" />
<path d="M190,22.5 L190,white" stroke="white" stroke-width="0.3" />
<path d="M200,22.5 L200,white" stroke="white" stroke-width="0.3" />
<path d="M210,22.5 L210,white" stroke="white" stroke-width="0.3" />
<path d="M220,15.0 L220,25" stroke="white" stroke-width="1.5" />
<text x="220.0" y="12.5" font-size="10" fill="white" style="font-family:Segoe UI;text-anchor:middle">10</text>
</svg>