<?xml version="1.0" encoding="UTF-8"?>
<svg xmlns="http://www.w3.org/2000/svg" xmlns:xlink="http://www.w3.org/1999/xlink"
     width="290" height="100" viewBox="0 0 290 100">
<defs>
</defs>
<text x="60.0" y="43.5" font-size="16" fill="white" style="font-family:Segoe UI;text-anchor:middle">Enraged Smash</text>
<circle cx="150" cy="37.5" r="6.25" fill="red" />
<path d="M150,25 L150,50" stroke="red" />
<circle cx="190" cy="37.5" r="6.25" fill="red" />
<path d="M190,25 L190,50" stroke="red" />
<circle cx="230" cy="37.5" r="6.25" fill="red" />
<path d="M230,25 L230,50" stroke="red" />
<circle cx="270" cy="37.5" r="6.25" fill="red" />
<path d="M270,25 L270,50" stroke="red" />
<circle cx="310" cy="37.5" r="6.25" fill="red" />
<path d="M310,25 L310,50" stroke="red" />
<circle cx="350" cy="37.5" r="6.25" fill="red" />
<path d="M350,25 L350,50" stroke="red" />
<circle cx="390" cy="37.5" r="6.25" fill="red" />
<path d="M390,25 L390,50" stroke="red" />
<circle cx="430" cy="37.5" r="6.25" fill="red" />
<path d="M430,25 L430,50" stroke="red" />
<circle cx="470" cy="37.5" r="6.25" fill="red" />
<path d="M470,25 L470,50" stroke="red" />
<circle cx="510" cy="37.5" r="6.25" fill="red" />
<path d="M510,25 L510,50" stroke="red" />
<circle cx="550" cy="37.5" r="6.25" fill="red" />
<path d="M550,25 L550,50" stroke="red" />
<circle cx="590" cy="37.5" r="6.25" fill="red" />
<path d="M590,25 L590,50" stroke="red" />
<circle cx="630" cy="37.5" r="6.25" fill="red" />
<path d="M630,25 L630,50" stroke="red" />
<circle cx="670" cy="37.5" r="6.25" fill="red" />
<path d="M670,25 L670,50" stroke="red" />
<circle cx="710" cy="37.5" r="6.25" fill="red" />
<path d="M710,25 L710,50" stroke="red" />
<text x="60.0" y="68.5" font-size="16" fill="white" style="font-family:Segoe UI;text-anchor:middle">Aspects</text>
<rect x="180" y="50" width="50" height="25" fill="green" />
<text x="205.0" y="66.5" font-size="12" fill="white" style="font-family:Segoe UI;text-anchor:middle">Regret</text>
<rect x="230" y="50" width="50" height="25" fill="orange" />
<text x="255.0" y="66.5" font-size="12" fill="black" style="font-family:Segoe UI;text-anchor:middle">Rage</text>
<text x="60.0" y="93.5" font-size="16" fill="white" style="font-family:Segoe UI;text-anchor:middle"></text>
<rect x="130" y="75" width="100" height="25" fill="blue" />
<text x="180.0" y="91.5" font-size="12" fill="white" style="font-family:Segoe UI;text-anchor:middle">Envy</text>
<path d="M0,25 L290,25" stroke="white" stroke-width="2" />
<path d="M120,0 L120,100" stroke="white" stroke-width="2" />
<path d="M130,15.0 L130,25" stroke="white" stroke-width="1.5" />
<text x="130.0" y="12.5" font-size="10" fill="white" style="font-family:Segoe UI;text-anchor:middle">10</text>
<path d="M140,22.5 L140,white" stroke="white" stroke-width="0.3" />
<path d="M150,22.5 L150,white" stroke="white" stroke-width="0.3" />
<path d="M160,22.5 L160,white" stroke="white" stroke-width="0.3" />
<path d="M170,22.5 L170,white" stroke="white" stroke-width="0.3" />
<path d="M180,20.0 L180,25" stroke="white" stroke-width="0.5" />
<path d="M190,22.5 L190,white" stroke="white" stroke-width="0.3" />
<path d="M200,22.5 L200,white" stroke="white" stroke-width="0.3" />
<path d="M210,22.5 L210,white" stroke="white" stroke-width="0.3" />
<path d="M220,22.5 L220,white" stroke="white" stroke-width="0.3" />
<path d="M230,15.0 L230,25" stroke="white" stroke-width="1.5" />
<text x="230.0" y="12.5" font-size="10" fill="white" style="font-family:Segoe UI;text-anchor:middle">20</text>
<path d="M240,22.5 L240,white" stroke="white" stroke-width="0.3" />
<path d="M250,22.5 L250,white" stroke="white" stroke-width="0.3" />
<path d="M260,22.5 L260,white" stroke="white" stroke-width="0.3" />
<path d="M270,22.5 L270,white" stroke="white" stroke-width="0.3" />
<path d="M280,20.0 L280,25" stroke="white" stroke-width="0.5" />
</svg>